<svg width="24" height="24" viewBox="0 0 24 24" fill="none" xmlns="http://www.w3.org/2000/svg">
<path d="M11.0811 0.511189C11.5053 -0.170396 12.4947 -0.170397 12.9189 0.511189L13.0622 0.741348C13.4071 1.29562 14.1582 1.42135 14.6639 1.00947L14.8739 0.838436C15.4958 0.331949 16.4316 0.654214 16.6122 1.43704L16.6732 1.70138C16.82 2.33799 17.4897 2.70154 18.1014 2.47669L18.3553 2.38332C19.1074 2.10682 19.8882 2.71642 19.8056 3.51565L19.7778 3.78554C19.7106 4.43549 20.2263 4.99748 20.8776 4.98401L21.148 4.97842C21.9489 4.96187 22.4901 5.79276 22.1532 6.52179L22.0395 6.76797C21.7656 7.36082 22.0715 8.06035 22.6918 8.25974L22.9494 8.34253C23.7122 8.58772 23.9551 9.54985 23.4006 10.1297L23.2133 10.3255C22.7624 10.797 22.8252 11.5582 23.3474 11.9489L23.5643 12.1111C24.2064 12.5914 24.1247 13.5806 23.4125 13.9484L23.172 14.0725C22.5928 14.3716 22.4059 15.1121 22.7733 15.6517L22.9259 15.8757C23.3778 16.5392 22.9803 17.4481 22.1877 17.564L21.92 17.6031C21.2754 17.6974 20.8589 18.3369 21.0318 18.9669L21.1036 19.2285C21.3162 20.0031 20.6461 20.7334 19.8589 20.5848L19.593 20.5346C18.9529 20.4138 18.352 20.883 18.3115 21.5352L18.2948 21.806C18.2451 22.6079 17.3749 23.0803 16.6784 22.6834L16.4433 22.5494C15.8769 22.2266 15.1566 22.4746 14.9073 23.0783L14.8038 23.329C14.4972 24.0713 13.5213 24.2347 12.991 23.6324L12.812 23.4291C12.3807 22.9393 11.6193 22.9393 11.188 23.4291L11.009 23.6324C10.4787 24.2347 9.50279 24.0713 9.19621 23.329L9.09268 23.0783C8.84336 22.4746 8.12313 22.2266 7.55675 22.5494L7.32157 22.6834C6.6251 23.0803 5.75492 22.6079 5.70524 21.806L5.68846 21.5352C5.64805 20.883 5.04713 20.4138 4.40696 20.5346L4.14113 20.5848C3.35392 20.7334 2.6838 20.0031 2.8964 19.2285L2.96819 18.9669C3.14107 18.3369 2.72457 17.6974 2.07999 17.6031L1.81233 17.564C1.01968 17.4481 0.622234 16.5392 1.07407 15.8757L1.22665 15.6517C1.59409 15.1121 1.40716 14.3716 0.828004 14.0725L0.587513 13.9484C-0.124668 13.5806 -0.206375 12.5914 0.435745 12.1111L0.652577 11.9489C1.17476 11.5582 1.23764 10.797 0.78668 10.3255L0.599421 10.1297C0.0448777 9.54985 0.287767 8.58772 1.05058 8.34253L1.30817 8.25974C1.9285 8.06035 2.23439 7.36082 1.96049 6.76797L1.84676 6.52179C1.50995 5.79276 2.05111 4.96187 2.85196 4.97842L3.12239 4.98401C3.77365 4.99748 4.2894 4.43549 4.22224 3.78554L4.19436 3.51566C4.11178 2.71643 4.89257 2.10682 5.64467 2.38332L5.89864 2.47669C6.51026 2.70154 7.17997 2.33799 7.32683 1.70138L7.38782 1.43704C7.56842 0.654215 8.50423 0.331949 9.12608 0.838436L9.33606 1.00947C9.84176 1.42135 10.5929 1.29562 10.9378 0.741348L11.0811 0.511189Z" fill="#D5A021"/>
<path d="M13.75 7V17H11.7737V9.11429L9.36838 10.7286L8.25 9.24286L11.6511 7H13.75Z" fill="white"/>
</svg>
