<svg width="24" height="24" viewBox="0 0 24 24" fill="none" xmlns="http://www.w3.org/2000/svg">
<g clip-path="url(#clip0_225_10)">
<rect width="24" height="24" rx="4" fill="#533A7B"/>
<path d="M20 11.0219C20 9.17004 18.4446 7.66941 16.523 7.66941C16.1553 7.66941 15.8067 7.73901 15.4762 7.83947C15.4671 5.99367 13.9171 4.5 11.9995 4.5C10.0833 4.5 8.531 5.99367 8.52378 7.83947C8.19337 7.73901 7.84478 7.66941 7.47703 7.66941C5.55544 7.66941 4 9.17004 4 11.0219C4 12.5055 5.00534 13.7481 6.39166 14.1892C5.97622 14.7422 5.72678 15.4142 5.72678 16.1472C5.72678 17.9991 7.28219 19.5 9.20347 19.5C10.3553 19.5 11.3667 18.9564 11.9996 18.1247C12.6334 18.9564 13.6447 19.5 14.7953 19.5C16.7179 19.5 18.2723 17.9991 18.2723 16.1472C18.2723 15.4142 18.0226 14.7422 17.6084 14.1892C18.9947 13.7481 20 12.5056 20 11.0219ZM11.9995 14.4536C11.0004 14.4536 10.1893 13.6728 10.1893 12.7095C10.1893 11.7458 11.0004 10.965 11.9995 10.965C12.9995 10.965 13.8097 11.7458 13.8097 12.7095C13.8098 13.6728 12.9996 14.4536 11.9995 14.4536Z" fill="white"/>
</g>
<defs>
<clipPath id="clip0_225_10">
<rect width="24" height="24" fill="white"/>
</clipPath>
</defs>
</svg>
