<svg width="24" height="24" viewBox="0 0 24 24" fill="none" xmlns="http://www.w3.org/2000/svg">
<g clip-path="url(#clip0_245_7)">
<rect width="24" height="24" rx="4" fill="#D5A021"/>
<path fill-rule="evenodd" clip-rule="evenodd" d="M17.0608 13.7019C16.9375 16.6487 14.5105 19 11.5334 19C8.47737 19 6 16.4393 6 13.4666C6 13.0693 5.99288 12.2752 6.58866 10.9354C6.94521 10.1336 7.16884 9.62985 7.29505 9.1694C7.3644 8.91633 7.49926 8.51428 7.88371 9.1694C8.1104 9.55568 8.11918 10.1113 8.11918 10.1113C8.11918 10.1113 8.96261 9.46402 9.53196 8.22754C10.3666 6.41489 9.70067 5.33134 9.47309 4.57786C9.39433 4.3172 9.34488 3.84875 9.88515 4.04807C10.4357 4.25121 11.8911 5.27001 12.6518 6.34384C13.7376 7.87641 14.1235 9.346 14.1235 9.346C14.1235 9.346 14.4712 8.91451 14.5944 8.46301C14.7336 7.95317 14.7357 7.44822 15.183 7.99214C15.6084 8.50939 16.2403 9.48145 16.5959 10.4056C17.2416 12.0838 17.0608 13.7019 17.0608 13.7019Z" fill="white"/>
<path fill-rule="evenodd" clip-rule="evenodd" d="M11.5924 14.8206C12.1369 14.8206 12.1369 15.8289 12.8286 17.1752C13.2892 18.0717 12.6002 19 11.5924 19C10.5846 19 10.0619 18.183 10.0619 17.1752C10.0619 16.1674 11.0479 14.8206 11.5924 14.8206Z" fill="white"/>
</g>
<defs>
<clipPath id="clip0_245_7">
<rect width="24" height="24" fill="white"/>
</clipPath>
</defs>
</svg>
