<svg width="24" height="24" viewBox="0 0 24 24" fill="none" xmlns="http://www.w3.org/2000/svg">
<path fill-rule="evenodd" clip-rule="evenodd" d="M12 0C13.1861 0 13.7791 0 14.2469 0.182688C14.8706 0.426276 15.3662 0.893496 15.6245 1.48156C15.7425 1.75 15.7887 2.06218 15.8067 2.51753C15.8332 3.18679 16.1972 3.80629 16.8125 4.14115C17.4276 4.47602 18.1787 4.46351 18.8067 4.15056C19.2341 3.93763 19.5439 3.81923 19.8493 3.78131C20.5187 3.69822 21.1957 3.86923 21.7312 4.25672C22.1329 4.54734 22.4295 5.03156 23.0225 6C23.6156 6.96844 23.9121 7.45266 23.9782 7.92596C24.0663 8.55704 23.8849 9.19528 23.4739 9.7002C23.2863 9.93084 23.0226 10.1245 22.6133 10.367C22.0119 10.7233 21.6248 11.3302 21.6248 11.9999C21.6248 12.6696 22.0119 13.2767 22.6133 13.633C23.0225 13.8754 23.2862 14.0692 23.4738 14.2997C23.8848 14.8046 24.0661 15.4429 23.9781 16.074C23.912 16.5473 23.6155 17.0315 23.0223 17.9999C22.4294 18.9684 22.1328 19.4526 21.7311 19.7432C21.1955 20.1307 20.5185 20.3017 19.8492 20.2186C19.5437 20.1806 19.2339 20.0623 18.8067 19.8494C18.1785 19.5365 17.4275 19.5239 16.8124 19.8588C16.1972 20.1937 15.8332 20.8132 15.8067 21.4824C15.7887 21.9378 15.7425 22.25 15.6245 22.5185C15.3662 23.1065 14.8706 23.5738 14.2469 23.8174C13.7791 24 13.1861 24 12 24C10.8139 24 10.2209 24 9.75304 23.8174C9.12934 23.5738 8.63379 23.1065 8.37543 22.5185C8.25749 22.25 8.21134 21.9378 8.19327 21.4825C8.16673 20.8132 7.80269 20.1937 7.18751 19.8588C6.57232 19.524 5.82127 19.5365 5.19325 19.8494C4.76595 20.0623 4.45612 20.1808 4.15059 20.2187C3.48124 20.3017 2.8043 20.1307 2.26869 19.7432C1.86714 19.4528 1.57069 18.9687 0.978058 18.001L0.977427 18C0.38439 17.0316 0.0878725 16.5473 0.02179 16.074C-0.0663368 15.4429 0.115046 14.8048 0.526037 14.2998C0.713644 14.0693 0.977325 13.8755 1.38656 13.633C1.98803 13.2767 2.37506 12.6697 2.3751 12C2.37514 11.3303 1.9881 10.7232 1.38657 10.3668C0.977389 10.1244 0.713746 9.93072 0.526165 9.7002C0.115173 9.19519 -0.0662097 8.55696 0.0219044 7.92589C0.0879974 7.45259 0.384498 6.9684 0.977495 6.00001L0.977554 5.99992L0.977578 5.99988C1.5706 5.03147 1.86711 4.54725 2.26882 4.25664C2.80443 3.86915 3.48137 3.69814 4.15072 3.78122C4.45627 3.81914 4.76612 3.93756 5.19344 4.15051C5.82143 4.46345 6.57243 4.47595 7.18756 4.14112C7.80271 3.80627 8.16673 3.18682 8.19327 2.51759C8.21133 2.0622 8.25749 1.75001 8.37543 1.48156C8.63379 0.893496 9.12934 0.426276 9.75304 0.182688C10.2209 0 10.8139 0 12 0ZM12 16C14.2091 16 16 14.2091 16 12C16 9.79086 14.2091 8 12 8C9.79085 8 7.99999 9.79086 7.99999 12C7.99999 14.2091 9.79085 16 12 16Z" fill="black"/>
</svg>
