<svg width="26" height="26" viewBox="0 0 26 26" fill="none" xmlns="http://www.w3.org/2000/svg">
<path d="M13 17.5L17.5 13M17.5 13L13 8.5M17.5 13H1M1 5.87203V5.8003C1 4.12014 1 3.27943 1.32698 2.6377C1.61459 2.07321 2.07321 1.61459 2.6377 1.32698C3.27943 1 4.12014 1 5.8003 1H20.2003C21.8805 1 22.7194 1 23.3611 1.32698C23.9256 1.61459 24.3857 2.07321 24.6733 2.6377C25 3.2788 25 4.11848 25 5.79536V20.2054C25 21.8823 25 22.7208 24.6733 23.3619C24.3857 23.9263 23.9256 24.3857 23.3611 24.6733C22.72 25 21.8815 25 20.2047 25H5.79536C4.11848 25 3.2788 25 2.6377 24.6733C2.07321 24.3857 1.61459 23.9259 1.32698 23.3614C1 22.7197 1 21.8801 1 20.2V20.125" stroke="black" stroke-width="1.5" stroke-linecap="round" stroke-linejoin="round"/>
</svg>
