<svg width="28" height="24" viewBox="0 0 28 24" fill="none" xmlns="http://www.w3.org/2000/svg">
<path fill-rule="evenodd" clip-rule="evenodd" d="M9.08789 15.5149C8.60632 15.9867 8.16882 16.4938 7.77832 17.0299C7.70447 16.9635 7.63232 16.8937 7.56226 16.8204L1.76477 10.7574C1.20532 10.1724 0.761475 9.47766 0.458618 8.71313C0.155884 7.94861 0 7.12915 0 6.30164C0 5.47412 0.155884 4.65479 0.458618 3.89026C0.761475 3.12573 1.2052 2.43103 1.76477 1.84583C2.32422 1.26074 2.9884 0.796509 3.71948 0.479858C4.45044 0.163208 5.23401 0.000244141 6.02527 0.000244141C6.81641 0.000244141 7.59998 0.163208 8.33093 0.479858C9.06128 0.796265 9.72498 1.25989 10.2842 1.84436L10.2852 1.84326L10.2866 1.84473C10.8459 1.26001 11.5098 0.796143 12.2404 0.479614C12.9714 0.162964 13.7549 0 14.5461 0C15.3374 0 16.121 0.162964 16.8519 0.479736C17.5829 0.796387 18.2472 1.2605 18.8066 1.8457C19.3662 2.43079 19.8099 3.12549 20.1128 3.89001C20.278 4.30701 20.3993 4.74023 20.4756 5.18225C19.6609 4.74658 18.7336 4.50012 17.75 4.50012C14.5026 4.50012 11.87 7.1864 11.87 10.5001C11.87 11.458 12.09 12.3635 12.4812 13.1667C11.2335 13.749 10.0839 14.5393 9.08789 15.5149ZM22 10.5001C22 12.9854 19.9852 15.0001 17.5 15.0001C15.0148 15.0001 13 12.9854 13 10.5001C13 8.01489 15.0148 6.00012 17.5 6.00012C19.9852 6.00012 22 8.01489 22 10.5001ZM13.0278 14.5001C11.9414 15.0116 10.9407 15.7102 10.0753 16.5754C8.1062 18.5447 7 21.2153 7 24.0001H17.5H28C28 21.2153 26.8937 18.5447 24.9246 16.5754C24.0593 15.7102 23.0586 15.0116 21.9722 14.5001C20.8735 15.7277 19.277 16.5001 17.5 16.5001C15.723 16.5001 14.1265 15.7277 13.0278 14.5001Z" fill="black"/>
</svg>
