<svg width="24" height="24" viewBox="0 0 24 24" fill="none" xmlns="http://www.w3.org/2000/svg">
<g clip-path="url(#clip0_230_38)">
<rect width="24" height="24" rx="4" fill="#59CD90"/>
<path fill-rule="evenodd" clip-rule="evenodd" d="M15.9158 7.87597C15.8717 7.66903 15.8104 7.46599 15.7325 7.26917C15.5558 6.8232 15.2969 6.41797 14.9706 6.07664C14.6442 5.7353 14.2567 5.46454 13.8303 5.27981C13.4039 5.09508 12.9468 5 12.4853 5C12.0237 5 11.5667 5.09508 11.1402 5.2798C10.714 5.46443 10.3268 5.735 10.0005 6.07607L9.99971 6.07523L9.99912 6.07585C9.67293 5.73495 9.28578 5.46451 8.85974 5.27994C8.43331 5.09521 7.97627 5.00013 7.51471 5.00013C7.05315 5.00013 6.59611 5.0952 6.16969 5.27993C5.74326 5.46466 5.3558 5.73542 5.02943 6.07675C4.70306 6.41808 4.44417 6.8233 4.26754 7.26928C4.09091 7.71525 4 8.19324 4 8.67596C4 9.15868 4.09091 9.63667 4.26755 10.0826C4.44418 10.5286 4.70307 10.9338 5.02945 11.2752L8.26274 14.6564C8.47049 14.3705 8.69969 14.0988 8.94927 13.844C9.43542 13.3477 9.98448 12.9304 10.5773 12.6C10.3895 12.1466 10.2858 11.6482 10.2858 11.125C10.2858 9.03096 11.9487 7.33338 14 7.33338C14.7009 7.33338 15.3564 7.53154 15.9158 7.87597ZM12.862 13.4796L12.862 13.4796C12.7293 13.4126 12.6031 13.3343 12.4845 13.2459C12.6031 13.3343 12.7293 13.4126 12.862 13.4796Z" fill="white"/>
<path fill-rule="evenodd" clip-rule="evenodd" d="M14 13.75C15.4201 13.75 16.5714 12.5747 16.5714 11.125C16.5714 9.67528 15.4201 8.5 14 8.5C12.5799 8.5 11.4286 9.67528 11.4286 11.125C11.4286 12.5747 12.5799 13.75 14 13.75ZM9.7574 14.669C10.1809 14.2366 10.6613 13.8756 11.1805 13.5934C11.8617 14.4035 12.8721 14.9166 14 14.9166C15.1279 14.9166 16.1383 14.4035 16.8195 13.5934C17.3387 13.8756 17.8191 14.2366 18.2426 14.669C19.3679 15.8176 20 17.3755 20 19H14H8C8 17.3755 8.63212 15.8176 9.7574 14.669Z" fill="white"/>
</g>
<defs>
<clipPath id="clip0_230_38">
<rect width="24" height="24" fill="white"/>
</clipPath>
</defs>
</svg>
