<svg width="28" height="24" viewBox="0 0 28 24" fill="none" xmlns="http://www.w3.org/2000/svg">
<mask id="mask0_104_199" style="mask-type:alpha" maskUnits="userSpaceOnUse" x="0" y="0" width="28" height="24">
<rect width="27.4286" height="24" fill="black"/>
</mask>
<g mask="url(#mask0_104_199)">
<path fill-rule="evenodd" clip-rule="evenodd" d="M17.0988 21.4261L24.6269 13.898L24.6277 13.8987C25.3541 13.1722 25.9304 12.3098 26.3235 11.3607C26.7167 10.4115 26.9191 9.39419 26.9191 8.36682C26.9191 7.33946 26.7167 6.32216 26.3235 5.37299C25.9304 4.42383 25.3541 3.5614 24.6277 2.83495C23.9012 2.10849 23.0388 1.53223 22.0896 1.13908C21.1405 0.745923 20.1232 0.543569 19.0958 0.543569C18.0684 0.543569 17.0511 0.745924 16.102 1.13908C15.1533 1.53202 14.2913 2.10787 13.5651 2.83378L13.5633 2.83198L13.562 2.8333C12.8359 2.10777 11.9742 1.5322 11.0259 1.1394C10.0767 0.746241 9.05943 0.543886 8.03206 0.543886C7.0047 0.543886 5.98739 0.74624 5.03823 1.1394C4.08907 1.53255 3.22664 2.10881 2.50019 2.83526C1.77373 3.56172 1.19747 4.42415 0.804317 5.37331C0.411161 6.32247 0.208807 7.33978 0.208806 8.36714C0.208806 9.39451 0.41116 10.4118 0.804317 11.361C1.19747 12.3101 1.77373 13.1726 2.50019 13.899L2.50045 13.8988L10.0278 21.4261C11.9804 23.3787 15.1462 23.3787 17.0988 21.4261Z" fill="#020202"/>
</g>
</svg>
