<svg width="24" height="24" viewBox="0 0 24 24" fill="none" xmlns="http://www.w3.org/2000/svg">
<g clip-path="url(#clip0_196_35)">
<rect width="24" height="24" rx="4" fill="#DB5461"/>
<path fill-rule="evenodd" clip-rule="evenodd" d="M14.1175 18.0825L18.627 13.3663C19.0621 12.9112 19.4078 12.3714 19.6433 11.7767C19.8788 11.1821 20 10.5448 20 9.90116C20 9.25753 19.8788 8.62021 19.6433 8.02557C19.4078 7.43094 19.0626 6.89064 18.6274 6.43552C18.1922 5.98041 17.6756 5.61939 17.1071 5.37308C16.5385 5.12678 15.9291 5 15.3137 5C14.6983 5 14.0889 5.12677 13.5203 5.37307C12.9521 5.61924 12.4357 5.98 12.0007 6.43477L11.9996 6.43364L11.9988 6.43447C11.5639 5.97993 11.0477 5.61934 10.4796 5.37326C9.91108 5.12695 9.30169 5.00018 8.68628 5.00017C8.07087 5.00017 7.46148 5.12694 6.89291 5.37324C6.32435 5.61955 5.80773 5.98056 5.37257 6.43567C4.93741 6.89078 4.59222 7.43108 4.35672 8.02571C4.12121 8.62035 4 9.25767 4 9.9013C4 10.5449 4.12122 11.1823 4.35673 11.7769C4.59224 12.3715 4.93743 12.9118 5.3726 13.3669L9.88179 18.0825C11.0515 19.3058 12.9479 19.3058 14.1175 18.0825Z" fill="white"/>
</g>
<defs>
<clipPath id="clip0_196_35">
<rect width="24" height="24" fill="white"/>
</clipPath>
</defs>
</svg>
