<svg width="25" height="28" viewBox="0 0 25 28" fill="none" xmlns="http://www.w3.org/2000/svg">
<path d="M22.2222 17.92C22.2222 16.7208 22.2211 15.9056 22.17 15.2755C22.1218 14.6809 22.0357 14.3677 21.9297 14.1496L21.9194 14.1287C21.6531 13.6019 21.2283 13.1737 20.7056 12.9052V12.9052C20.4624 12.7804 20.107 12.6837 19.3598 12.6377H19.3597C18.757 12.6006 17.9986 12.6 16.9444 12.6H8.05554C7.00132 12.6 6.24299 12.6006 5.64022 12.6377H5.64014C4.89288 12.6837 4.53749 12.7804 4.29439 12.9052L4.29435 12.9052C3.77171 13.1736 3.34682 13.6019 3.08053 14.1287C2.96982 14.3477 2.87966 14.6617 2.82992 15.2755C2.77884 15.9056 2.77775 16.7208 2.77775 17.92V19.88C2.77775 21.0792 2.77884 21.8945 2.82992 22.5246C2.87966 23.1383 2.96986 23.4522 3.08057 23.6713C3.33855 24.1816 3.74537 24.5995 4.24573 24.8691L4.29443 24.8948L4.29448 24.8948C4.51168 25.0064 4.8231 25.0973 5.43201 25.1474C6.05712 25.1989 6.86586 25.2 8.05554 25.2H16.9444C18.1341 25.2 18.9429 25.1989 19.568 25.1474C20.1769 25.0973 20.4883 25.0064 20.7056 24.8948H20.7056C21.2283 24.6264 21.6531 24.1981 21.9194 23.6713V23.6712C22.0301 23.4522 22.1203 23.1383 22.17 22.5246C22.2211 21.8945 22.2222 21.0792 22.2222 19.88V17.92ZM18.0555 8.40001C18.0555 5.30722 15.5682 2.79998 12.5 2.79998C9.43176 2.79998 6.94442 5.30722 6.94442 8.40001V9.80229C7.29067 9.79989 7.66073 9.79999 8.05554 9.79999H16.9444C17.3392 9.79999 17.7093 9.79989 18.0555 9.80229V8.40001ZM20.8333 10.0106C21.2266 10.0975 21.6034 10.2238 21.9665 10.4103L21.9666 10.4103C23.012 10.9472 23.8618 11.8039 24.3944 12.8576H24.3945C24.7379 13.5371 24.8748 14.2605 24.9386 15.0474C25.0011 15.818 25 16.767 25 17.92V19.88C25 21.033 25.0011 21.982 24.9386 22.7526C24.8768 23.5149 24.7464 24.2176 24.4261 24.8785L24.3945 24.9424C23.8618 25.9961 23.012 26.8527 21.9666 27.3896C21.2925 27.7358 20.5749 27.8738 19.7942 27.9381C19.0297 28.0011 18.0883 28 16.9444 28H8.05554C6.91168 28 5.97025 28.0011 5.20577 27.9381C4.42508 27.8738 3.70741 27.7358 3.03333 27.3896V27.3896C1.98803 26.8527 1.13814 25.9961 0.605511 24.9424H0.60547C0.262042 24.2629 0.125149 23.5395 0.0613619 22.7526C-0.00109837 21.982 1.27219e-06 21.033 1.27219e-06 19.88V17.92C1.26419e-06 16.767 -0.00109814 15.818 0.0613619 15.0474C0.125149 14.2605 0.262048 13.5371 0.60547 12.8577L0.605511 12.8576C1.13816 11.8039 1.98806 10.9472 3.03341 10.4103H3.03345C3.3966 10.2239 3.77338 10.0976 4.16667 10.0106V8.40001C4.16667 3.76082 7.89763 0 12.5 0C17.1023 7.62191e-06 20.8333 3.76082 20.8333 8.40001V10.0106Z" fill="black"/>
</svg>
