<svg width="28" height="24" viewBox="0 0 28 24" fill="none" xmlns="http://www.w3.org/2000/svg">
<path fill-rule="evenodd" clip-rule="evenodd" d="M17.5 15C19.9853 15 22 12.9853 22 10.5C22 8.01472 19.9853 6 17.5 6C15.0147 6 13 8.01472 13 10.5C13 12.9853 15.0147 15 17.5 15ZM10.0754 16.5754C10.9407 15.7101 11.9414 15.0114 13.0278 14.5C14.1264 15.7275 15.723 16.5 17.5 16.5C19.277 16.5 20.8735 15.7275 21.9722 14.5C23.0586 15.0114 24.0593 15.7101 24.9246 16.5754C26.8937 18.5445 28 21.2152 28 24H17.5L7 24C7 21.2152 8.10625 18.5445 10.0754 16.5754Z" fill="#84A07C"/>
<path d="M17 0C19.2091 0 21 1.79086 21 4V5.02441C19.9895 4.37713 18.7891 4 17.5 4C13.9102 4 11 6.91015 11 10.5C11 11.3967 11.1813 12.2512 11.5098 13.0283C10.4725 13.5946 9.51183 14.3104 8.66113 15.1611C7.81346 16.0088 7.10244 16.967 6.53711 18H4C1.7909 18 6.59868e-05 16.2091 0 14V4C0 1.79086 1.79086 4.02672e-08 4 0H17ZM13.0273 14.5C14.126 15.7275 15.723 16.5 17.5 16.5C18.8068 16.5 20.0146 16.0803 21 15.3711V18H8.88477C9.23679 17.4945 9.63365 17.0167 10.0752 16.5752C10.8163 15.8341 11.6569 15.2151 12.5654 14.7314C12.7174 14.6505 12.8717 14.5733 13.0273 14.5ZM17.5 6C18.9138 6 20.175 6.65219 21 7.67188V13.3281C20.9528 13.3864 20.9045 13.4441 20.8545 13.5C20.0305 14.4207 18.8328 15 17.5 15C16.1672 15 14.9695 14.4207 14.1455 13.5C13.7943 13.1076 13.5115 12.6523 13.3145 12.1543C13.1119 11.6422 13 11.0842 13 10.5C13 8.01472 15.0147 6 17.5 6Z" fill="#33658A"/>
</svg>
