<svg width="28" height="28" viewBox="0 0 28 28" fill="none" xmlns="http://www.w3.org/2000/svg">
<path d="M23.0205 0C23.6742 5.65644e-08 24.3218 0.135664 24.9258 0.399414C25.5299 0.663312 26.0796 1.05046 26.542 1.53809C27.0042 2.02557 27.3709 2.60433 27.6211 3.24121C27.8713 3.87824 28 4.56146 28 5.25098C28 5.94055 27.8713 6.62365 27.6211 7.26074C27.3709 7.89785 27.0034 8.47625 26.541 8.96387L23.7246 11.9336C22.8881 11.3472 21.8717 11 20.7617 11H14.3877L12.458 8.96484C11.9957 8.47723 11.6291 7.89783 11.3789 7.26074C11.1287 6.62371 11 5.94049 11 5.25098C11.0001 4.56164 11.1288 3.87907 11.3789 3.24219C11.6291 2.60512 11.9957 2.02569 12.458 1.53809C12.9204 1.05046 13.4701 0.664289 14.0742 0.400391C14.6783 0.13656 15.3257 0 15.9795 0C16.6333 4.19704e-05 17.2808 0.136533 17.8848 0.400391C18.4882 0.664049 19.037 1.05018 19.499 1.53711L19.5 1.53613L19.501 1.53711C19.9631 1.04995 20.5115 0.663135 21.1152 0.399414C21.7192 0.135559 22.3667 4.1991e-05 23.0205 0Z" fill="#FFB2E6"/>
<path d="M12.0898 6C12.7473 6.00006 13.3985 6.13558 14.0059 6.39941C14.6133 6.66328 15.1649 7.05056 15.6299 7.53809C16.0948 8.02561 16.4642 8.60425 16.7158 9.24121C16.9369 9.80084 17.0632 10.3962 17.0908 11H10.2383C7.29122 11 5.00017 13.4427 5 16.333V18.6689L1.4668 14.9648C1.0018 14.4772 0.632514 13.8978 0.380859 13.2607C0.12927 12.6237 3.2369e-07 11.9405 0 11.251C5.07644e-05 10.5617 0.129359 9.87905 0.380859 9.24219C0.632515 8.60509 1.0018 8.0257 1.4668 7.53809C1.93163 7.05068 2.48354 6.66426 3.09082 6.40039C3.69837 6.13649 4.35021 6 5.00781 6C5.66534 6.00003 6.31635 6.13652 6.92383 6.40039C7.53076 6.66403 8.08218 7.05018 8.54688 7.53711L8.54785 7.53613L8.54883 7.53711C9.01365 7.04988 9.56565 6.66317 10.1729 6.39941C10.7804 6.13552 11.4322 6 12.0898 6ZM9.90723 13.0176C9.8209 13.0266 9.73555 13.0388 9.65137 13.0547C9.73717 13.0385 9.82409 13.0257 9.91211 13.0166L9.90723 13.0176Z" fill="#E63462"/>
<path d="M7 17C7 14.7909 8.79086 13 11 13L20 13C22.2091 13 24 14.7909 24 17L24 28H11C8.79086 28 7 26.2091 7 24L7 17Z" fill="#33658A"/>
</svg>
