<svg width="28" height="24" viewBox="0 0 28 24" fill="none" xmlns="http://www.w3.org/2000/svg">
<path d="M24.7853 2.53825C25.609 2.53828 26.4165 2.84549 27.0257 3.41898C27.6379 3.99543 28 4.7973 28 5.6537V18.3463C28 19.2027 27.6379 20.0046 27.0257 20.581C26.4165 21.1545 25.609 21.4617 24.7853 21.4617H22.0892C21.0583 21.4617 20.2225 20.6352 20.2225 19.6155C20.2225 18.5959 21.0583 17.7694 22.0892 17.7694L24.2667 17.7694V6.23064L15.7281 6.23064C15.9943 6.88174 15.8732 7.65402 15.3517 8.19583C14.6409 8.93421 13.4597 8.9628 12.713 8.25983L10.0169 5.72131L9.88568 5.5852C9.59747 5.25229 9.43724 4.8268 9.43724 4.38445C9.43724 3.87905 9.64682 3.39605 10.0169 3.04758L12.713 0.509061C13.4597 -0.193907 14.6409 -0.165314 15.3517 0.573065C15.8732 1.11488 15.9943 1.88715 15.7281 2.53825L24.7853 2.53825ZM5.91081 2.53825C6.94174 2.53825 7.77747 3.36482 7.77747 4.38445C7.77747 5.40407 6.94174 6.23064 5.91081 6.23064H3.73333L3.73333 17.7694H12.271C12.0049 17.1183 12.1269 16.3459 12.6483 15.8042C13.3591 15.0658 14.5403 15.0372 15.287 15.7402L17.9831 18.2787C18.3532 18.6272 18.5628 19.1102 18.5628 19.6155C18.5628 20.1209 18.3532 20.6039 17.9831 20.9524L15.287 23.4909C14.5403 24.1939 13.3591 24.1653 12.6483 23.4269C12.1269 22.8852 12.0049 22.1128 12.271 21.4617H3.21471C2.39099 21.4617 1.58348 21.1545 0.97435 20.581L0.86224 20.4701C0.318116 19.904 1.78471e-06 19.1491 5.5481e-07 18.3463L0 5.65371L0.00455728 5.49415C0.0437107 4.75134 0.354323 4.05836 0.86224 3.52986L0.974349 3.41898L1.09102 3.31441C1.68463 2.80818 2.44252 2.53828 3.21471 2.53825H5.91081Z" fill="#51344D"/>
</svg>
