<svg width="28" height="24" viewBox="0 0 28 24" fill="none" xmlns="http://www.w3.org/2000/svg">
<path d="M17.7056 22.4272L25.5972 14.3422L25.598 14.343C26.3595 13.5628 26.9636 12.6366 27.3757 11.6172C27.7879 10.5979 28 9.50531 28 8.40195C28 7.29859 27.7879 6.20604 27.3757 5.18667C26.9636 4.16729 26.3595 3.24107 25.598 2.46088C24.8364 1.68068 23.9324 1.0618 22.9374 0.639561C21.9424 0.217323 20.876 9.0529e-08 19.799 0C18.722 0 17.6556 0.217323 16.6606 0.639561C15.6661 1.06157 14.7625 1.68002 14.0012 2.45962L13.9993 2.45769L13.998 2.45911C13.2368 1.67991 12.3335 1.06176 11.3394 0.639902C10.3444 0.217664 9.27799 0.000340208 8.20102 0.000340027C7.12405 0.000340027 6.05762 0.217663 5.06262 0.639901C4.06763 1.06214 3.16356 1.68102 2.40202 2.46121C1.64049 3.24141 1.03641 4.16763 0.624266 5.18701C0.212126 6.20638 7.95276e-07 7.29893 0 8.40229C5.30184e-07 9.50565 0.212125 10.5982 0.624266 11.6176C1.03641 12.637 1.64049 13.5632 2.40202 14.3434L10.2931 22.4272C12.34 24.5243 15.6587 24.5243 17.7056 22.4272Z" fill="#E63462"/>
</svg>
