<svg width="24" height="24" viewBox="0 0 24 24" fill="none" xmlns="http://www.w3.org/2000/svg">
<g clip-path="url(#clip0_196_34)">
<rect width="24" height="24" rx="4" fill="#3891A6"/>
<path fill-rule="evenodd" clip-rule="evenodd" d="M6.59462 15.2083C6.59462 15.3068 6.5994 15.4041 6.60873 15.5H4V7.91667C4 6.30584 5.27919 5 6.85714 5H13.6834C15.1686 5 16.3891 6.15683 16.5275 7.63596C16.4453 7.62871 16.3621 7.625 16.278 7.625H10.3166C8 7.625 6.59462 9 6.59462 11.4167L6.59462 15.2083ZM10.3166 8.5C8.73865 8.5 7.45947 9.80584 7.45947 11.4167V16.0833C7.45947 17.6942 8.73866 19 10.3166 19H20V11.4167C20 9.80584 18.7208 8.5 17.1429 8.5H10.3166Z" fill="white"/>
</g>
<defs>
<clipPath id="clip0_196_34">
<rect width="24" height="24" fill="white"/>
</clipPath>
</defs>
</svg>
