<svg width="280" height="280" viewBox="0 0 280 280" fill="none" xmlns="http://www.w3.org/2000/svg">
<g filter="url(#filter0_d_103_91)">
<rect x="15" y="15" width="250" height="250" rx="50" fill="#31A05E"/>
</g>
<path fill-rule="evenodd" clip-rule="evenodd" d="M137.251 185.099L162.05 224H224L198.104 185.1L137.251 185.099ZM110.193 168H110.18V224H56V56H154.7C167.16 56 178.15 58.352 187.67 63.056C197.19 67.6853 204.575 74.256 209.825 82.768C215.075 91.28 217.7 101.099 217.7 112.224C217.7 124.096 214.655 134.437 208.565 143.248C207.542 144.746 206.45 146.178 205.289 147.547C187.265 166.903 162.706 166.53 128.517 166.012C122.694 165.923 116.591 165.831 110.193 165.831V168ZM110.18 127.904V96.544H146.3C151.69 96.544 155.82 97.9253 158.69 100.688C161.63 103.376 163.1 107.221 163.1 112.224C163.1 117.227 161.63 121.109 158.69 123.872C155.82 126.56 151.69 127.904 146.3 127.904H110.18Z" fill="white"/>
<defs>
<filter id="filter0_d_103_91" x="0" y="0" width="280" height="280" filterUnits="userSpaceOnUse" color-interpolation-filters="sRGB">
<feFlood flood-opacity="0" result="BackgroundImageFix"/>
<feColorMatrix in="SourceAlpha" type="matrix" values="0 0 0 0 0 0 0 0 0 0 0 0 0 0 0 0 0 0 127 0" result="hardAlpha"/>
<feOffset/>
<feGaussianBlur stdDeviation="7.5"/>
<feComposite in2="hardAlpha" operator="out"/>
<feColorMatrix type="matrix" values="0 0 0 0 0 0 0 0 0 0 0 0 0 0 0 0 0 0 0.07 0"/>
<feBlend mode="normal" in2="BackgroundImageFix" result="effect1_dropShadow_103_91"/>
<feBlend mode="normal" in="SourceGraphic" in2="effect1_dropShadow_103_91" result="shape"/>
</filter>
</defs>
</svg>
