<svg width="24" height="24" viewBox="0 0 24 24" fill="none" xmlns="http://www.w3.org/2000/svg">
<g clip-path="url(#clip0_406_3)">
<rect width="24" height="24" rx="4" fill="#613F75"/>
<path d="M18.163 6.48065C18.6337 6.48066 19.0952 6.65987 19.4432 6.99441C19.7931 7.33067 20 7.79843 20 8.29799V15.702C20 16.2016 19.7931 16.6693 19.4432 17.0056C19.0952 17.3401 18.6337 17.5193 18.163 17.5194H16.6224C16.0333 17.5194 15.5557 17.0372 15.5557 16.4424C15.5557 15.8476 16.0333 15.3655 16.6224 15.3655L17.8667 15.3655V8.63454L12.9875 8.63454C13.1396 9.01435 13.0704 9.46484 12.7724 9.7809C12.3662 10.2116 11.6912 10.2283 11.2646 9.81824L9.72396 8.33743L9.64896 8.25803C9.48427 8.06383 9.39271 7.81564 9.39271 7.55759C9.39271 7.26278 9.51247 6.98103 9.72396 6.77775L11.2646 5.29695C11.6912 4.88689 12.3662 4.90357 12.7724 5.33429C13.0704 5.65034 13.1396 6.10084 12.9875 6.48065L18.163 6.48065ZM7.3776 6.48065C7.96671 6.48065 8.44427 6.96281 8.44427 7.55759C8.44427 8.15238 7.96671 8.63454 7.3776 8.63454H6.13333L6.13333 15.3655H11.012C10.86 14.9857 10.9297 14.5351 11.2276 14.2191C11.6338 13.7884 12.3088 13.7717 12.7354 14.1818L14.276 15.6626C14.4875 15.8658 14.6073 16.1476 14.6073 16.4424C14.6073 16.7372 14.4875 17.019 14.276 17.2222L12.7354 18.703C12.3088 19.1131 11.6338 19.0964 11.2276 18.6657C10.9297 18.3497 10.86 17.8991 11.012 17.5194H5.83698C5.36628 17.5193 4.90485 17.3401 4.55677 17.0056L4.49271 16.9409C4.18178 16.6106 4 16.1703 4 15.702L4 8.29799L4.0026 8.20492C4.02498 7.77161 4.20247 7.36738 4.49271 7.05909L4.55677 6.99441L4.62344 6.93341C4.96264 6.6381 5.39573 6.48066 5.83698 6.48065H7.3776Z" fill="white"/>
</g>
<defs>
<clipPath id="clip0_406_3">
<rect width="24" height="24" fill="white"/>
</clipPath>
</defs>
</svg>
