<svg width="27" height="22" viewBox="0 0 27 22" fill="none" xmlns="http://www.w3.org/2000/svg">
<path d="M22.2501 4.41667V2.30556C22.2501 2.0256 22.0921 1.75712 21.8108 1.55917C21.5295 1.36121 21.1479 1.25 20.7501 1.25H5.75013C5.3523 1.25 4.97077 1.36121 4.68947 1.55917C4.40816 1.75712 4.25013 2.0256 4.25013 2.30556V12.8611M4.25013 12.8611L7.25012 10.75M4.25013 12.8611L1.25012 10.75M4.25012 17.0833V19.1944C4.25012 19.4744 4.40816 19.7429 4.68946 19.9408C4.97077 20.1388 5.3523 20.25 5.75012 20.25H20.7501C21.1479 20.25 21.5295 20.1388 21.8108 19.9408C22.0921 19.7429 22.2501 19.4744 22.2501 19.1944V8.63889M22.2501 8.63889L19.2501 10.75M22.2501 8.63889L25.2501 10.75" stroke="black" stroke-width="2.5" stroke-linecap="round" stroke-linejoin="round"/>
</svg>
