<svg width="24" height="24" viewBox="0 0 24 24" fill="none" xmlns="http://www.w3.org/2000/svg">
<g clip-path="url(#clip0_406_6)">
<rect width="24" height="24" rx="4" fill="#44AF69"/>
<path d="M15.5324 10.0818L18.3381 12.4936C19.446 13.446 20 13.9222 20 14.5356C20 15.1491 19.446 15.6253 18.3381 16.5777L15.5324 18.9895C15.0267 19.4242 14.7738 19.6416 14.5653 19.551C14.3568 19.4605 14.3568 19.1333 14.3568 18.479V16.8775C11.8141 16.8775 9.05947 18.0485 8 20C8 13.755 11.767 12.1938 14.3568 12.1938V10.5923C14.3568 9.93798 14.3568 9.6108 14.5653 9.52026C14.7738 9.42973 15.0267 9.64709 15.5324 10.0818Z" fill="white"/>
<path d="M6.5332 7.11038C6.97496 7.11038 7.33289 7.47202 7.33301 7.918C7.33301 8.36408 6.97503 8.72561 6.5332 8.72561H5.59961V13.7744H8.6377C8.27749 14.2467 7.96365 14.7842 7.70215 15.3897H5.37793C5.02493 15.3897 4.67902 15.2548 4.41797 15.0039L4.36914 14.9561C4.13594 14.7084 4 14.3776 4 14.0264V8.47366L4.00195 8.40335C4.01881 8.07851 4.15154 7.77511 4.36914 7.54397L4.41797 7.49612L4.46777 7.45022C4.72217 7.22877 5.04701 7.11039 5.37793 7.11038H6.5332ZM8.9707 15.3897C9.02159 15.2925 9.07294 15.1974 9.12695 15.1055C9.07294 15.1974 9.0216 15.2925 8.9707 15.3897ZM9.17188 15.0342C9.21416 14.9644 9.25677 14.8959 9.30078 14.8291C9.25677 14.8959 9.21416 14.9644 9.17188 15.0342ZM9.38477 14.7051C9.42504 14.6472 9.46627 14.5907 9.50781 14.5352C9.46627 14.5907 9.42504 14.6472 9.38477 14.7051ZM9.57715 14.4434C9.61928 14.3893 9.66276 14.337 9.70605 14.2852C9.66276 14.337 9.61928 14.3893 9.57715 14.4434ZM9.78711 14.1885C9.82404 14.1462 9.86174 14.1052 9.89941 14.0645C9.86174 14.1052 9.82404 14.1462 9.78711 14.1885ZM10.0166 13.9405C10.0455 13.9111 10.0753 13.883 10.1045 13.8545C10.0753 13.883 10.0455 13.9111 10.0166 13.9405ZM10.2256 13.7383C10.2958 13.6739 10.3674 13.6124 10.4395 13.5528C10.3674 13.6124 10.2958 13.6739 10.2256 13.7383ZM15.5039 10.0576C15.5054 10.0589 15.5073 10.0602 15.5088 10.0616C15.5166 10.0682 15.5243 10.0753 15.5322 10.0821C15.4665 10.0256 15.4043 9.97376 15.3467 9.92483C15.3958 9.96659 15.4489 10.0104 15.5039 10.0576ZM9.44824 6.22268C9.76824 5.91514 10.2745 5.92796 10.5791 6.25101C10.8026 6.48805 10.8543 6.82554 10.7402 7.11038H14.6221C14.9751 7.11039 15.321 7.24526 15.582 7.49612C15.8444 7.74832 16 8.09898 16 8.47366V8.96194C15.8482 8.83507 15.6916 8.70961 15.5439 8.61526C15.3236 8.47454 14.7678 8.16438 14.1182 8.44632C13.9478 8.52031 13.8112 8.61785 13.7012 8.72561H10.7402C10.8543 9.01047 10.8026 9.34892 10.5791 9.58597C10.2744 9.90878 9.76816 9.92078 9.44824 9.61331L8.29297 8.50296L8.23633 8.44339C8.11296 8.29778 8.04492 8.1114 8.04492 7.918C8.04498 7.69697 8.1344 7.48544 8.29297 7.33304L9.44824 6.22268ZM14.9355 9.60354C14.8695 9.56147 14.8101 9.53301 14.7559 9.51663C14.8101 9.53301 14.8694 9.56147 14.9355 9.60354ZM14.6543 9.50101C14.679 9.50016 14.7047 9.50165 14.7314 9.50784C14.7047 9.50165 14.679 9.50016 14.6543 9.50101ZM15.1172 9.7344C15.1407 9.7528 15.1654 9.77161 15.1904 9.79202C15.1654 9.77161 15.1407 9.7528 15.1172 9.7344Z" fill="white"/>
</g>
<defs>
<clipPath id="clip0_406_6">
<rect width="24" height="24" fill="white"/>
</clipPath>
</defs>
</svg>
