<svg width="16" height="24" viewBox="0 0 16 24" fill="none" xmlns="http://www.w3.org/2000/svg">
<path d="M4.97802 21.033C4.97802 21.8681 5.25275 22.5714 5.8022 23.1429C6.35165 23.7143 7.04396 24 7.87912 24C8.73626 24 9.43956 23.7253 9.98901 23.1758C10.5604 22.6044 10.8462 21.9011 10.8462 21.0659C10.8462 20.2088 10.5604 19.4945 9.98901 18.9231C9.41758 18.3516 8.71429 18.0659 7.87912 18.0659C7.04396 18.0659 6.35165 18.3516 5.8022 18.9231C5.25275 19.4725 4.97802 20.1758 4.97802 21.033ZM15.5275 7.51648C15.5275 9.07692 15.0769 10.4505 14.1758 11.6374C13.2967 12.8022 12.0769 13.7473 10.5165 14.4725L7.21978 16.2198L5.73626 12.6593L8.73626 11.0769C10.4066 10.022 11.2418 8.84615 11.2418 7.54945C11.2418 6.58242 10.9231 5.8022 10.2857 5.20879C9.64835 4.59341 8.83517 4.28571 7.84615 4.28571C5.93407 4.28571 4.64835 5.43956 3.98901 7.74725L0 6.2967C0.615385 4.34066 1.59341 2.8022 2.93407 1.68132C4.27473 0.56044 5.9011 0 7.81319 0C10.033 0 11.8681 0.714286 13.3187 2.14286C14.7912 3.54945 15.5275 5.34066 15.5275 7.51648Z" fill="black"/>
</svg>
