<svg width="48" height="48" viewBox="0 0 48 48" fill="none" xmlns="http://www.w3.org/2000/svg">
<g clip-path="url(#clip0_207_18)">
<path d="M22.1622 1.02238C23.0106 -0.340792 24.9894 -0.340793 25.8378 1.02238L26.1243 1.4827C26.8143 2.59124 28.3165 2.8427 29.3279 2.01894L29.7478 1.67687C30.9915 0.663898 32.8632 1.30843 33.2244 2.87408L33.3463 3.40277C33.6401 4.67597 34.9795 5.40309 36.2027 4.95338L36.7107 4.76664C38.2149 4.21363 39.7764 5.43285 39.6113 7.03131L39.5555 7.57108C39.4212 8.87097 40.4527 9.99496 41.7552 9.96803L42.2961 9.95685C43.8978 9.92374 44.9801 11.5855 44.3065 13.0436L44.079 13.5359C43.5312 14.7216 44.143 16.1207 45.3837 16.5195L45.8988 16.6851C47.4245 17.1754 47.9102 19.0997 46.8012 20.2594L46.4266 20.651C45.5247 21.594 45.6505 23.1165 46.6948 23.8978L47.1285 24.2222C48.4127 25.1829 48.2493 27.1611 46.825 27.8967L46.344 28.1451C45.1857 28.7433 44.8118 30.2243 45.5467 31.3033L45.8519 31.7514C46.7555 33.0784 45.9606 34.8962 44.3753 35.128L43.84 35.2063C42.5509 35.3948 41.7179 36.6737 42.0636 37.9337L42.2072 38.4569C42.6324 40.0063 41.2922 41.4667 39.7177 41.1696L39.1861 41.0693C37.9057 40.8277 36.7039 41.766 36.6231 43.0703L36.5895 43.612C36.4902 45.2159 34.7498 46.1607 33.3569 45.3668L32.8865 45.0988C31.7537 44.4532 30.3133 44.9493 29.8146 46.1566L29.6076 46.658C28.9944 48.1426 27.0426 48.4694 25.982 47.2649L25.6239 46.8581C24.7615 45.8786 23.2385 45.8786 22.3761 46.8581L22.018 47.2649C20.9574 48.4694 19.0056 48.1426 18.3924 46.658L18.1854 46.1566C17.6867 44.9493 16.2463 44.4532 15.1135 45.0988L14.6431 45.3668C13.2502 46.1607 11.5098 45.2159 11.4105 43.612L11.3769 43.0703C11.2961 41.766 10.0943 40.8277 8.81392 41.0693L8.28226 41.1696C6.70784 41.4667 5.3676 40.0063 5.79279 38.4569L5.93637 37.9337C6.28214 36.6737 5.44915 35.3948 4.15997 35.2063L3.62465 35.128C2.03936 34.8962 1.24447 33.0784 2.14815 31.7514L2.4533 31.3033C3.18819 30.2243 2.81432 28.7433 1.65601 28.1451L1.17503 27.8967C-0.249337 27.1611 -0.41275 25.1829 0.871489 24.2222L1.30515 23.8978C2.34951 23.1165 2.47528 21.594 1.57336 20.651L1.19884 20.2594C0.0897554 19.0997 0.575534 17.1754 2.10117 16.6851L2.61634 16.5195C3.85701 16.1207 4.46878 14.7216 3.92099 13.5359L3.69351 13.0436C3.01989 11.5855 4.10222 9.92374 5.70392 9.95685L6.24478 9.96803C7.54731 9.99496 8.5788 8.87097 8.44448 7.57108L8.38871 7.03131C8.22355 5.43285 9.78514 4.21363 11.2893 4.76664L11.7973 4.95338C13.0205 5.40309 14.3599 4.67597 14.6537 3.40277L14.7756 2.87408C15.1368 1.30843 17.0085 0.663898 18.2522 1.67687L18.6721 2.01894C19.6835 2.8427 21.1857 2.59124 21.8757 1.4827L22.1622 1.02238Z" fill="#31A05E"/>
<path d="M36.5314 14.692C35.9636 14.2186 35.0987 14.2721 34.6007 14.8146L20.0304 30.6838L13.3665 23.9092C12.8493 23.3849 11.9844 23.3589 11.433 23.8505C10.8815 24.3421 10.8528 25.1689 11.37 25.6945L19.067 33.5189C19.327 33.781 19.6869 33.9296 20.066 33.9296H20.0892C20.4765 33.9244 20.8404 33.7627 21.0963 33.4849L36.6614 16.5321C37.1581 15.9896 37.1007 15.1667 36.5314 14.692Z" fill="white"/>
</g>
<defs>
<clipPath id="clip0_207_18">
<rect width="48" height="48" fill="white"/>
</clipPath>
</defs>
</svg>
