<svg width="23" height="19" viewBox="0 0 23 19" fill="none" xmlns="http://www.w3.org/2000/svg">
<path d="M21.3345 8.71342C21.0727 9.33749 20.6942 9.9081 20.2183 10.3954L20.148 10.4648L13.6656 16.8654C12.4711 18.0449 10.5278 18.0449 9.33329 16.8654L9.33326 16.8654L2.85134 10.4657C2.34261 9.96338 1.93992 9.36791 1.66547 8.7137L0.7102 9.11444L1.66547 8.71369C1.39104 8.05952 1.25 7.35894 1.25 6.65182C1.25 5.94469 1.39104 5.24411 1.66547 4.58994C1.93992 3.93572 2.34261 3.34025 2.85134 2.83794C3.36011 2.33559 3.96496 1.93628 4.63177 1.66356C5.29861 1.39084 6.01386 1.25027 6.73655 1.25027C7.45924 1.25027 8.17449 1.39084 8.84133 1.66356C9.50754 1.93603 10.1119 2.33487 10.6204 2.83658L11.4989 3.70337L11.4998 3.7025L11.5009 3.7036L12.3791 2.83686C12.8877 2.33489 13.4922 1.93586 14.1587 1.66329C14.8255 1.39057 15.5408 1.25 16.2634 1.25C16.9861 1.25 17.7014 1.39057 18.3682 1.66329C19.035 1.93601 19.6399 2.33532 20.1487 2.83767C20.6574 3.33999 21.0601 3.93546 21.3345 4.58967C21.609 5.24384 21.75 5.94442 21.75 6.65155C21.75 7.35867 21.609 8.05925 21.3345 8.71342Z" stroke="black" stroke-width="2.5"/>
</svg>
