<svg width="28" height="28" viewBox="0 0 28 28" fill="none" xmlns="http://www.w3.org/2000/svg">
<path d="M3.66912 5.18399C3.45697 4.27252 4.27252 3.45697 5.18399 3.66912L5.49178 3.74076C6.23299 3.91328 6.95574 3.3978 7.03307 2.64147L7.06517 2.32741C7.16026 1.39736 8.19726 0.891631 8.99138 1.38803L9.25953 1.55565C9.90532 1.95932 10.757 1.70697 11.0758 1.0175L11.2082 0.731195C11.6002 -0.116648 12.7463 -0.257751 13.337 0.469097L13.5365 0.714542C14.0168 1.30562 14.9052 1.34374 15.4309 0.795833L15.6492 0.568316C16.2957 -0.105444 17.4266 0.133369 17.7499 1.01191L17.8591 1.30857C18.122 2.02301 18.9507 2.34747 19.6264 2.0005L19.9069 1.85643C20.7378 1.42976 21.7311 2.02261 21.7519 2.95763L21.7589 3.27337C21.7759 4.03375 22.4552 4.60939 23.2076 4.50096L23.52 4.45594C24.4452 4.3226 25.1932 5.20524 24.9093 6.09543L24.8135 6.39603C24.5826 7.11994 25.0389 7.88438 25.7865 8.02624L26.0969 8.08515C27.0162 8.25959 27.4378 9.33638 26.88 10.0853L26.6916 10.3381C26.238 10.9471 26.4218 11.8176 27.0836 12.1943L27.3584 12.3508C28.1722 12.8141 28.2217 13.9684 27.4504 14.4948L27.1899 14.6725C26.5627 15.1006 26.4541 15.9827 26.9583 16.5535L27.1677 16.7906C27.7878 17.4926 27.4599 18.5992 26.5587 18.8461L26.2544 18.9295C25.5215 19.1303 25.1322 19.9284 25.4243 20.6315L25.5456 20.9235C25.9048 21.788 25.235 22.7271 24.3015 22.6678L23.9863 22.6477C23.2272 22.5995 22.5995 23.2272 22.6477 23.9863L22.6678 24.3015C22.7271 25.235 21.788 25.9048 20.9235 25.5456L20.6315 25.4243C19.9284 25.1322 19.1303 25.5215 18.9295 26.2544L18.8461 26.5587C18.5992 27.4599 17.4926 27.7878 16.7906 27.1677L16.5535 26.9583C15.9827 26.4541 15.1006 26.5627 14.6725 27.1899L14.4948 27.4504C13.9684 28.2217 12.8141 28.1722 12.3508 27.3584L12.1943 27.0836C11.8176 26.4218 10.9471 26.238 10.3381 26.6916L10.0853 26.88C9.33638 27.4378 8.25959 27.0162 8.08515 26.0969L8.02624 25.7865C7.88438 25.0389 7.11994 24.5826 6.39603 24.8135L6.09543 24.9093C5.20524 25.1932 4.3226 24.4452 4.45594 23.52L4.50096 23.2076C4.60939 22.4552 4.03375 21.7759 3.27337 21.7589L2.95763 21.7519C2.02261 21.7311 1.42976 20.7378 1.85643 19.9069L2.0005 19.6264C2.34747 18.9507 2.02301 18.122 1.30857 17.8591L1.01191 17.7499C0.133369 17.4266 -0.105444 16.2957 0.568316 15.6492L0.795833 15.4309C1.34374 14.9052 1.30562 14.0168 0.714542 13.5365L0.469098 13.337C-0.257751 12.7463 -0.116648 11.6002 0.731195 11.2082L1.0175 11.0758C1.70697 10.757 1.95933 9.90532 1.55565 9.25953L1.38803 8.99137C0.891633 8.19726 1.39736 7.16026 2.32741 7.06517L2.64147 7.03306C3.3978 6.95574 3.91328 6.23299 3.74076 5.49178L3.66912 5.18399Z" fill="#99621E"/>
<path d="M14.4668 12.3302C15.1237 11.8433 15.8464 11.6462 16.6347 11.7389C17.4153 11.824 18.1263 12.1872 18.7678 12.8287C19.5484 13.6093 19.9117 14.5135 19.8576 15.5415C19.8035 16.5694 19.3475 17.5123 18.4896 18.3702C17.7631 19.0967 16.94 19.5256 16.0203 19.657C15.1005 19.7729 14.2079 19.5913 13.3423 19.1121L14.2697 17.2341C14.7257 17.52 15.1894 17.6359 15.6609 17.5818C16.1323 17.5123 16.5651 17.2804 16.9593 16.8863C17.3844 16.4612 17.6201 16.0091 17.6665 15.5299C17.7129 15.0507 17.566 14.6411 17.2259 14.301C16.7777 13.8527 16.2483 13.6788 15.6377 13.7793C15.0271 13.8643 14.4127 14.216 13.7944 14.8343L12.4612 14.0807L12.8669 10.4521L8.87893 14.4401L7.40661 12.9678L13.1568 7.21764L14.8725 8.93341L14.4668 12.3302Z" fill="white"/>
</svg>
