<svg width="24" height="24" viewBox="0 0 24 24" fill="none" xmlns="http://www.w3.org/2000/svg">
<g clip-path="url(#clip0_230_262)">
<rect width="24" height="24" rx="4" fill="#BAB700"/>
<path d="M15.5324 10.0818L18.3381 12.4936C19.446 13.446 20 13.9222 20 14.5356C20 15.1491 19.446 15.6253 18.3381 16.5777L15.5324 18.9895C15.0267 19.4242 14.7738 19.6416 14.5653 19.551C14.3568 19.4605 14.3568 19.1333 14.3568 18.479V16.8775C11.8141 16.8775 9.05947 18.0485 8 20C8 13.755 11.767 12.1938 14.3568 12.1938V10.5923C14.3568 9.93798 14.3568 9.6108 14.5653 9.52026C14.7738 9.42973 15.0267 9.64709 15.5324 10.0818Z" fill="white"/>
<path fill-rule="evenodd" clip-rule="evenodd" d="M4 8.91667C4 7.30584 5.27919 6 6.85714 6H13.1429C14.7208 6 16 7.30584 16 8.91667V8.96023C15.8483 8.83346 15.691 8.70917 15.5435 8.61496C15.323 8.47422 14.7678 8.16456 14.118 8.44671C13.4406 8.74084 13.294 9.39483 13.2531 9.66944C13.2135 9.9347 13.2138 10.2608 13.214 10.5354L13.214 10.5924V11.1129C11.9672 11.3002 10.5994 11.8176 9.43974 12.8906C8.49716 13.7628 7.74863 14.9495 7.30508 16.5H6.85714C5.27919 16.5 4 15.1942 4 13.5833V8.91667ZM15.5323 10.0817L15.5086 10.0614L15.5038 10.0572C15.3271 9.90541 15.182 9.78137 15.0591 9.68918C15.1886 9.78628 15.3427 9.91871 15.5323 10.0817Z" fill="white"/>
</g>
<defs>
<clipPath id="clip0_230_262">
<rect width="24" height="24" fill="white"/>
</clipPath>
</defs>
</svg>
