<svg width="38" height="29" viewBox="0 0 38 29" fill="none" xmlns="http://www.w3.org/2000/svg">
<path fill-rule="evenodd" clip-rule="evenodd" d="M21.46 27.3928V29H21.0249H20.2999H18.8499H17.7624C17.7624 29 17.7624 29 17.7624 29H17.0423C17.0407 29 17.039 29 17.0374 29C17.0374 29 17.0374 29 17.0374 29H16.6753H15.9503H15.6603V27.3928C15.6472 27.282 15.6472 27.1777 15.6603 27.0799V23.3423C15.5381 23.0121 15.3625 22.6916 15.1336 22.3809C14.9407 22.1327 14.8304 22.0499 14.8029 22.1327C14.7753 22.2154 14.8442 22.4223 15.0096 22.7532C15.1474 23.0566 15.2577 23.3324 15.3404 23.5806C15.3955 23.8288 15.4231 24.1184 15.4231 24.4494C15.4231 25.4698 15.1336 26.4351 14.5548 27.3452C14.3342 27.6486 14.1137 27.8968 13.8932 28.0899C13.6727 28.2829 13.3832 28.4622 13.0249 28.6277L12.4046 29H0.33079L0.248094 28.7518C0.192962 28.6139 0.165396 28.2416 0.165396 27.6348C0.165396 27.0281 0.192962 26.4902 0.248094 26.0214C0.385923 24.8631 0.620232 23.8288 0.951021 22.9187C1.28181 22.0086 1.75043 21.2363 2.35688 20.602C2.93576 19.9401 3.68004 19.4437 4.58971 19.1127C5.49939 18.7542 6.58823 18.5749 7.85626 18.5749C9.12429 18.5749 10.4061 18.7817 11.7017 19.1954C12.9973 19.6091 14.1275 20.2297 15.0923 21.0571C15.2026 21.1122 15.2853 21.1674 15.3404 21.2225L15.4644 21.2639C15.492 21.2363 15.4093 21.0571 15.2163 20.7261C15.0234 20.3676 14.8304 20.0642 14.6375 19.816C14.1964 19.1816 13.6589 18.6714 13.0249 18.2853C12.3633 17.8716 11.6328 17.6648 10.8334 17.6648C10.2545 17.6648 9.63426 17.7613 8.97268 17.9544C8.53163 18.0923 8.20084 18.175 7.98031 18.2026C7.75978 18.2026 7.52547 18.175 7.27738 18.1198C7.02929 18.0647 6.82254 17.9819 6.65715 17.8716C6.46419 17.7337 6.27123 17.5544 6.07827 17.3338C5.47182 16.6443 5.20994 15.8031 5.29264 14.8103C5.34777 14.1484 5.51317 13.5692 5.78883 13.0728C6.06449 12.5487 6.45041 12.135 6.94659 11.8317C7.30495 11.611 7.62195 11.4869 7.89761 11.4593C8.17327 11.4042 8.64189 11.3766 9.30347 11.3766C10.351 11.3766 11.3158 11.5835 12.1979 11.9971C13.08 12.3833 13.8518 13.0176 14.5134 13.9001C14.5685 14.0105 14.665 14.1759 14.8029 14.3966C14.9407 14.5896 15.0647 14.7827 15.175 14.9758C15.3833 15.3766 15.5451 15.647 15.6603 15.7868V14.4793C15.6878 12.4936 15.7016 10.6457 15.7016 8.9358V7.54524C15.6507 7.27729 15.5855 7.02374 15.5058 6.7846C15.368 6.42606 15.1888 6.1089 14.9682 5.8331C14.7202 5.5573 14.4031 5.37804 14.0172 5.2953C13.6864 5.21256 13.3005 5.26772 12.8595 5.46078C12.3908 5.65383 11.7568 6.02616 10.9574 6.57775C10.4888 6.88113 10.0477 7.15692 9.63426 7.40514C9.22077 7.62578 8.80729 7.81884 8.3938 7.98431C7.98031 8.14979 7.55304 8.2739 7.11199 8.35664C6.64337 8.43938 6.1334 8.48075 5.58208 8.48075C4.78267 8.48075 4.07974 8.34285 3.4733 8.06705C2.83928 7.79125 2.30175 7.41893 1.8607 6.95007C1.41964 6.45364 1.06129 5.88826 0.785627 5.25393C0.509969 4.59202 0.289442 3.88874 0.124048 3.14409C0.0964824 2.97861 0.0689164 2.75797 0.0413493 2.48217C0.0137838 2.1788 0 1.87542 0 1.57205C0 1.26867 0.0137838 0.992874 0.0413493 0.744657C0.0413493 0.468861 0.0551329 0.289594 0.0827 0.206854L0.165396 7.02757e-06H10.7507L14.8624 0H18.1249H18.8503H20.6624H22.1128H26.3696H36.9549L37.0376 0.206847C37.0652 0.289587 37.0789 0.468854 37.0789 0.744651C37.1065 0.992867 37.1203 1.26866 37.1203 1.57204C37.1203 1.87542 37.1065 2.17879 37.0789 2.48217C37.0514 2.75796 37.0238 2.9786 36.9962 3.14408C36.8308 3.88873 36.6103 4.59201 36.3347 5.25392C36.059 5.88825 35.7006 6.45364 35.2596 6.95007C34.8185 7.41892 34.281 7.79125 33.647 8.06704C33.0405 8.34284 32.3376 8.48074 31.5382 8.48074C30.9869 8.48074 30.4769 8.43937 30.0083 8.35663C29.5672 8.27389 29.14 8.14978 28.7265 7.98431C28.313 7.81883 27.8995 7.62577 27.486 7.40513C27.0725 7.15692 26.6315 6.88112 26.1629 6.57774C25.3635 6.02615 24.7294 5.65383 24.2608 5.46077C23.8198 5.26771 23.4338 5.21255 23.1031 5.29529C22.7171 5.37803 22.4001 5.5573 22.152 5.8331C21.9315 6.10889 21.7523 6.42606 21.6145 6.78459C21.5348 7.02374 21.4695 7.27729 21.4187 7.54524V8.93581C21.4187 10.6457 21.4324 12.4936 21.46 14.4793V15.7868C21.5752 15.647 21.7369 15.3766 21.9453 14.9757C22.0556 14.7827 22.1796 14.5896 22.3174 14.3966C22.4553 14.1759 22.5517 14.0105 22.6069 13.9001C23.2684 13.0176 24.0403 12.3833 24.9224 11.9971C25.8045 11.5834 26.7693 11.3766 27.8168 11.3766C28.4784 11.3766 28.947 11.4042 29.2227 11.4593C29.4983 11.4869 29.8153 11.611 30.1737 11.8317C30.6699 12.135 31.0558 12.5487 31.3315 13.0727C31.6071 13.5692 31.7725 14.1484 31.8276 14.8103C31.9103 15.8031 31.6485 16.6443 31.042 17.3338C30.8491 17.5544 30.6561 17.7337 30.4631 17.8716C30.2977 17.9819 30.091 18.0647 29.8429 18.1198C29.5948 18.175 29.3605 18.2026 29.14 18.2026C28.9194 18.175 28.5887 18.0922 28.1476 17.9543C27.486 17.7613 26.8658 17.6648 26.2869 17.6648C25.4875 17.6648 24.757 17.8716 24.0954 18.2853C23.4614 18.6714 22.9239 19.1816 22.4828 19.816C22.2899 20.0642 22.0969 20.3676 21.9039 20.7261C21.711 21.0571 21.6283 21.2363 21.6558 21.2639L21.7799 21.2225C21.835 21.1674 21.9177 21.1122 22.028 21.0571C22.9928 20.2297 24.123 19.6091 25.4186 19.1954C26.7142 18.7817 27.996 18.5749 29.264 18.5749C30.532 18.5749 31.6209 18.7542 32.5306 19.1127C33.4402 19.4436 34.1845 19.9401 34.7634 20.602C35.3699 21.2363 35.8385 22.0086 36.1693 22.9187C36.5001 23.8288 36.7344 24.863 36.8722 26.0214C36.9273 26.4902 36.9549 27.028 36.9549 27.6348C36.9549 28.2416 36.9273 28.6139 36.8722 28.7518L36.7895 29H24.7157L24.0954 28.6277C23.7371 28.4622 23.4476 28.2829 23.2271 28.0899C23.0066 27.8968 22.786 27.6486 22.5655 27.3452C21.9866 26.4351 21.6972 25.4698 21.6972 24.4494C21.6972 24.1184 21.7248 23.8288 21.7799 23.5806C21.8626 23.3324 21.9729 23.0566 22.1107 22.7532C22.2761 22.4222 22.345 22.2154 22.3174 22.1327C22.2899 22.0499 22.1796 22.1327 21.9866 22.3809C21.7578 22.6916 21.5822 23.0121 21.46 23.3423V27.0799C21.473 27.1777 21.473 27.282 21.46 27.3928Z" fill="#006633"/>
</svg>
