<svg width="24" height="24" viewBox="0 0 24 24" fill="none" xmlns="http://www.w3.org/2000/svg">
<g clip-path="url(#clip0_196_33)">
<rect width="24" height="24" rx="4" fill="#DC7F9B"/>
<path fill-rule="evenodd" clip-rule="evenodd" d="M12 12C13.8936 12 15.4286 10.433 15.4286 8.5C15.4286 6.567 13.8936 5 12 5C10.1064 5 8.57143 6.567 8.57143 8.5C8.57143 10.433 10.1064 12 12 12ZM6.34312 13.2253C7.00244 12.5523 7.76493 12.0089 8.59263 11.6111C9.42969 12.5658 10.6461 13.1667 12 13.1667C13.3539 13.1667 14.5703 12.5658 15.4074 11.6111C16.2351 12.0089 16.9976 12.5523 17.6569 13.2253C19.1572 14.7569 20 16.8341 20 19H12H4C4 16.8341 4.84284 14.7569 6.34312 13.2253Z" fill="white"/>
</g>
<defs>
<clipPath id="clip0_196_33">
<rect width="24" height="24" fill="white"/>
</clipPath>
</defs>
</svg>
