<svg width="24" height="24" viewBox="0 0 24 24" fill="none" xmlns="http://www.w3.org/2000/svg">
<g clip-path="url(#clip0_230_91)">
<rect width="24" height="24" rx="4" fill="#F49D37"/>
<path fill-rule="evenodd" clip-rule="evenodd" d="M15.7325 8.34152C15.799 8.51484 15.8533 8.69284 15.8953 8.87402C15.7769 8.77822 15.6573 8.68764 15.5434 8.61496C15.323 8.47422 14.7677 8.16456 14.118 8.44671C13.4406 8.74084 13.2939 9.39483 13.253 9.66944C13.2135 9.93469 13.2137 10.2608 13.2139 10.5353V10.5354V10.5354L13.214 10.5924V11.1129C11.9672 11.3002 10.5994 11.8176 9.43971 12.8906C8.74137 13.5368 8.14955 14.3556 7.70935 15.3671L5.02945 12.4753C4.70308 12.123 4.44418 11.7049 4.26755 11.2447C4.09091 10.7845 4 10.2913 4 9.79317C4 9.29505 4.09091 8.80182 4.26754 8.34163C4.44417 7.88144 4.70306 7.46329 5.02944 7.11108C5.35581 6.75886 5.74327 6.47947 6.1697 6.28885C6.59612 6.09823 7.05316 6.00013 7.51473 6.00013C7.97629 6.00013 8.43333 6.09824 8.85976 6.28886C9.2858 6.47931 9.67294 6.75837 9.99913 7.11013L9.99974 7.10947L10.0005 7.11033C10.3268 6.75841 10.714 6.47923 11.1402 6.28872C11.5666 6.09811 12.0237 6 12.4853 6C12.9468 6 13.4039 6.09811 13.8303 6.28873C14.2567 6.47935 14.6442 6.75875 14.9706 7.11097C15.2969 7.46319 15.5558 7.88133 15.7325 8.34152ZM18.3381 12.4936L15.5324 10.0818L15.5323 10.0817C15.0266 9.64705 14.7738 9.42973 14.5653 9.52026C14.3568 9.6108 14.3568 9.93798 14.3568 10.5923V12.1938C11.767 12.1938 8 13.755 8 20C9.05947 18.0485 11.8141 16.8775 14.3568 16.8775V18.479C14.3568 19.1333 14.3568 19.4605 14.5653 19.551C14.7738 19.6416 15.0265 19.4243 15.5319 18.9899L15.5324 18.9895L18.3381 16.5777L18.3382 16.5776C19.4461 15.6252 20 15.1491 20 14.5356C20 13.9222 19.446 13.446 18.3381 12.4936Z" fill="white"/>
</g>
<defs>
<clipPath id="clip0_230_91">
<rect width="24" height="24" fill="white"/>
</clipPath>
</defs>
</svg>
