<svg width="23" height="19" viewBox="0 0 23 19" fill="none" xmlns="http://www.w3.org/2000/svg">
<path fill-rule="evenodd" clip-rule="evenodd" d="M15.3643 17.1232L21.0488 11.4387L21.0494 11.4394C21.6548 10.834 22.135 10.1153 22.4626 9.32432C22.7903 8.53335 22.9589 7.6856 22.9589 6.82947C22.9589 5.97334 22.7903 5.12559 22.4626 4.33463C22.135 3.54366 21.6548 2.82498 21.0494 2.2196C20.4441 1.61423 19.7254 1.13402 18.9344 0.806393C18.1434 0.478767 17.2957 0.310142 16.4396 0.310145C15.5834 0.310148 14.7357 0.478778 13.9447 0.806409C13.1541 1.13391 12.4356 1.61388 11.8304 2.21893L11.8289 2.21742L11.8279 2.21836C11.2229 1.61375 10.5048 1.1341 9.71455 0.806772C8.92359 0.479147 8.07584 0.310521 7.2197 0.310524C6.36357 0.310526 5.51582 0.479157 4.72486 0.806787C3.93389 1.13442 3.2152 1.61463 2.60982 2.22001C2.00444 2.82539 1.52423 3.54408 1.1966 4.33504C0.868969 5.12601 0.700339 5.97376 0.700335 6.82989C0.700332 7.68602 0.868959 8.53377 1.19658 9.32474C1.52421 10.1157 2.00442 10.8344 2.60979 11.4398L2.60985 11.4397L8.29331 17.1232C10.2459 19.0758 13.4117 19.0758 15.3643 17.1232Z" fill="#020202"/>
</svg>
