<svg width="28" height="24" viewBox="0 0 28 24" fill="none" xmlns="http://www.w3.org/2000/svg">
<path fill-rule="evenodd" clip-rule="evenodd" d="M17.5 15C19.9853 15 22 12.9853 22 10.5C22 8.01472 19.9853 6 17.5 6C15.0147 6 13 8.01472 13 10.5C13 12.9853 15.0147 15 17.5 15ZM10.0754 16.5754C10.9407 15.7101 11.9414 15.0114 13.0278 14.5C14.1264 15.7275 15.723 16.5 17.5 16.5C19.277 16.5 20.8735 15.7275 21.9722 14.5C23.0586 15.0114 24.0593 15.7101 24.9246 16.5754C26.8937 18.5445 28 21.2152 28 24H17.5L7 24C7 21.2152 8.10625 18.5445 10.0754 16.5754Z" fill="#84A07C"/>
<path d="M13.0273 14.5C13.4299 14.9497 13.9003 15.3375 14.4209 15.6494L13.2793 16.8203C12.1439 17.9836 10.4872 18.285 9.08008 17.7275C9.3819 17.3224 9.71371 16.9367 10.0752 16.5752C10.8163 15.8341 11.6569 15.2151 12.5654 14.7314C12.7174 14.6505 12.8717 14.5733 13.0273 14.5ZM14.8496 0C15.6572 5.01591e-05 16.457 0.162862 17.2031 0.479492C17.9493 0.796153 18.6271 1.26061 19.1982 1.8457C19.7694 2.43081 20.2231 3.12518 20.5322 3.88965C20.6685 4.22668 20.7724 4.57533 20.8496 4.92969C19.8713 4.34013 18.7255 4 17.5 4C13.9102 4 11.0001 6.91021 11 10.5C11 11.3967 11.1814 12.2512 11.5098 13.0283C10.4725 13.5946 9.51183 14.3104 8.66113 15.1611C8.22446 15.5978 7.82347 16.0636 7.45996 16.5537L1.80176 10.7578C1.23061 10.1727 0.776878 9.47742 0.467773 8.71289C0.158779 7.94849 5.16369e-06 7.12912 0 6.30176C5.96335e-07 5.47441 0.158792 4.65502 0.467773 3.89062C0.776878 3.1261 1.23061 2.43085 1.80176 1.8457C2.37286 1.26066 3.05073 0.796129 3.79688 0.479492C4.54298 0.162884 5.34282 5.01836e-05 6.15039 0C6.95812 1.35794e-07 7.75864 0.162814 8.50488 0.479492C9.25041 0.795883 9.92725 1.26036 10.498 1.84473L10.499 1.84375L10.501 1.84473C11.0719 1.26009 11.7494 0.795994 12.4951 0.479492C13.2414 0.162814 14.0419 0 14.8496 0ZM17.5 6C18.8478 6 20.0561 6.59349 20.8809 7.53223C20.8025 7.93549 20.6865 8.33117 20.5322 8.71289C20.2617 9.38192 19.8809 9.99775 19.4072 10.5332L19.1982 10.7568L15.5088 14.5352C14.9902 14.2788 14.5274 13.9267 14.1455 13.5C13.7945 13.1077 13.5115 12.6531 13.3145 12.1553C13.1118 11.6431 13 11.0843 13 10.5C13.0001 8.01478 15.0148 6 17.5 6Z" fill="#E63462"/>
</svg>
