<svg width="28" height="28" viewBox="0 0 28 28" fill="none" xmlns="http://www.w3.org/2000/svg">
<path d="M14.1404 15.3161L19.5298 9.7947C20.0499 9.26188 20.4629 8.62988 20.7444 7.93373C21.0259 7.23757 21.1707 6.49143 21.1707 5.73792C21.1707 4.9844 21.0259 4.23827 20.7444 3.54211C20.4629 2.84596 20.0504 2.21341 19.5303 1.6806C19.0103 1.14778 18.3928 0.72513 17.7133 0.436773C17.0338 0.148415 16.3055 6.18247e-08 15.57 0C14.8345 0 14.1063 0.148416 13.4267 0.436773C12.7476 0.724976 12.1305 1.14733 11.6106 1.67974L11.6093 1.67842L11.6084 1.67939C11.0886 1.14725 10.4717 0.725104 9.79277 0.437006C9.11326 0.148648 8.38497 0.000232337 7.64948 0.000232214C6.91398 0.000232214 6.18569 0.148648 5.50618 0.437005C4.82668 0.725362 4.20926 1.14801 3.68919 1.68083C3.16911 2.21364 2.75657 2.84619 2.47511 3.54234C2.19365 4.2385 2.04878 4.98464 2.04878 5.73815C2.04878 6.49167 2.19365 7.2378 2.47511 7.93396C2.75657 8.63011 3.16911 9.26266 3.68919 9.79547L9.0782 15.3161C10.4761 16.7483 12.7425 16.7483 14.1404 15.3161Z" fill="#FFB2E6"/>
<path d="M20.9697 22.8283L26.3591 17.3069C26.8791 16.7741 27.2922 16.1421 27.5737 15.4459C27.8551 14.7498 28 14.0036 28 13.2501C28 12.4966 27.8551 11.7505 27.5737 11.0543C27.2922 10.3582 26.8797 9.72561 26.3596 9.19279C25.8395 8.65998 25.2221 8.23732 24.5426 7.94897C23.8631 7.66061 23.1348 7.51219 22.3993 7.51219C21.6638 7.51219 20.9355 7.66061 20.256 7.94897C19.5769 8.23717 18.9598 8.65952 18.4399 9.19193L18.4386 9.19062L18.4376 9.19159C17.9178 8.65945 17.3009 8.2373 16.622 7.9492C15.9425 7.66084 15.2142 7.51243 14.4787 7.51243C13.7433 7.51243 13.015 7.66084 12.3355 7.9492C11.6559 8.23756 11.0385 8.66021 10.5185 9.19302C9.99838 9.72584 9.58584 10.3584 9.30438 11.0545C9.02291 11.7507 8.87805 12.4968 8.87805 13.2503C8.87805 14.0039 9.02292 14.75 9.30438 15.4462C9.58584 16.1423 9.99838 16.7749 10.5185 17.3077L15.9075 22.8283C17.3054 24.2605 19.5718 24.2605 20.9697 22.8283Z" fill="#231123"/>
<path d="M12.0916 26.9259L17.481 21.4045C18.0011 20.8716 18.4142 20.2396 18.6956 19.5435C18.9771 18.8473 19.122 18.1012 19.122 17.3477C19.122 16.5942 18.9771 15.848 18.6956 15.1519C18.4142 14.4557 18.0016 13.8232 17.4815 13.2904C16.9615 12.7575 16.3441 12.3349 15.6645 12.0465C14.985 11.7582 14.2568 11.6098 13.5213 11.6098C12.7858 11.6098 12.0575 11.7582 11.378 12.0465C10.6988 12.3347 10.0817 12.7571 9.56181 13.2895L9.56052 13.2882L9.55958 13.2891C9.0398 12.757 8.42288 12.3349 7.74399 12.0468C7.06448 11.7584 6.33619 11.61 5.6007 11.61C4.8652 11.61 4.13691 11.7584 3.4574 12.0468C2.77789 12.3351 2.16048 12.7578 1.64041 13.2906C1.12033 13.8234 0.70779 14.4559 0.426328 15.1521C0.144867 15.8483 5.43115e-07 16.5944 0 17.3479C3.62077e-07 18.1014 0.144866 18.8476 0.426328 19.5437C0.707789 20.2399 1.12033 20.8724 1.64041 21.4052L7.02942 26.9259C8.42731 28.358 10.6937 28.358 12.0916 26.9259Z" fill="#E63462"/>
</svg>
