<svg width="24" height="24" viewBox="0 0 24 24" fill="none" xmlns="http://www.w3.org/2000/svg">
<path d="M21.8186 1.90369C22.3775 1.90371 22.9255 2.13412 23.3388 2.56424C23.7543 2.99657 24 3.59798 24 4.24028V13.7597C24 14.402 23.7543 15.0034 23.3388 15.4358C22.9255 15.8659 22.3775 16.0963 21.8186 16.0963H18C17.3004 16.0963 18.7224 15.4764 18.7224 14.7117C18.7224 13.9469 17.8004 13.327 18.5 13.327L21.4667 13.327V4.67298H15.6727C15.8533 5.16131 15.7711 5.74051 15.4172 6.14687C14.9349 6.70066 14.1334 6.7221 13.6267 6.19488L11.7972 4.29099L11.7081 4.1889C11.5126 3.93921 11.4038 3.6201 11.4038 3.28834C11.4038 2.90929 11.5461 2.54704 11.7972 2.28568L13.6267 0.381796C14.1334 -0.145431 14.9349 -0.123986 15.4172 0.429799C15.7711 0.836158 15.8533 1.41536 15.6727 1.90369L21.8186 1.90369ZM9.0109 1.90369C9.71046 1.90369 10.2776 2.52362 10.2776 3.28834C10.2776 4.05305 9.71047 4.67298 9.0109 4.67298H7.53333L7.53333 13.327H13.3267C13.1462 12.8387 13.229 12.2594 13.5828 11.8531C14.0651 11.2993 14.8666 11.2779 15.3733 11.8051L17.2028 13.709C17.4539 13.9704 17.5962 14.3326 17.5962 14.7117C17.5962 15.0907 17.4539 15.453 17.2028 15.7143L15.3733 17.6182C14.8666 18.1454 14.0651 18.124 13.5828 17.5702C13.229 17.1639 13.1462 16.5846 13.3267 16.0963H7.18141C6.62246 16.0963 6.0745 15.8659 5.66117 15.4358L5.58509 15.3526C5.21586 14.928 5 14.3618 5 13.7597L5 4.24028L5.00309 4.12061C5.02966 3.5635 5.24043 3.04377 5.58509 2.6474L5.66117 2.56424L5.74033 2.48581C6.14314 2.10613 6.65743 1.90371 7.18141 1.90369H9.0109Z" fill="#993955"/>
<path d="M16.8186 7.90369C17.3775 7.90371 17.9255 8.13412 18.3388 8.56424C18.7543 8.99657 19 9.59798 19 10.2403V19.7597C19 20.402 18.7543 21.0034 18.3388 21.4358C17.9255 21.8659 17.3775 22.0963 16.8186 22.0963H14.9891C14.2895 22.0963 13.7224 21.4764 13.7224 20.7117C13.7224 19.9469 14.2895 19.327 14.9891 19.327L16.4667 19.327V10.673H10.6727C10.8533 11.1613 10.7711 11.7405 10.4172 12.1469C9.93488 12.7007 9.13335 12.7221 8.62669 12.1949L6.7972 10.291L6.70814 10.1889C6.51257 9.93921 6.40384 9.6201 6.40384 9.28834C6.40384 8.90929 6.54605 8.54704 6.7972 8.28568L8.62669 6.3818C9.13335 5.85457 9.93488 5.87601 10.4172 6.4298C10.7711 6.83616 10.8533 7.41536 10.6727 7.90369L16.8186 7.90369ZM5.85943 7.90369C6.55899 7.90369 5.27757 8.52362 5.27757 9.28834C5.27757 10.0531 6.55899 10.7693 5.85943 10.7693L2.53333 10.673L2.53333 19.327H8.32673C8.1462 18.8387 8.22897 18.2594 8.58278 17.8531C9.06512 17.2993 9.86665 17.2779 10.3733 17.8051L12.2028 19.709C12.4539 19.9704 12.5962 20.3326 12.5962 20.7117C12.5962 21.0907 12.4539 21.453 12.2028 21.7143L10.3733 23.6182C9.86665 24.1454 9.06513 24.124 8.58278 23.5702C8.22897 23.1639 8.1462 22.5846 8.32673 22.0963H2.18141C1.62246 22.0963 1.0745 21.8659 0.661166 21.4358L0.585092 21.3526C0.215865 20.928 1.21105e-06 20.3618 3.76479e-07 19.7597L0 10.2403L0.00309244 10.1206C0.0296608 9.5635 0.240434 9.04377 0.585091 8.6474L0.661165 8.56424L0.740332 8.48581C1.14314 8.10614 1.65743 7.90371 2.18141 7.90369L5.85943 7.90369Z" fill="#00B9AE"/>
<path d="M9.0109 1.90369C9.71046 1.90369 10.2776 2.52362 10.2776 3.28834C10.2776 4.05305 9.71047 4.67298 9.0109 4.67298H7.53333L7.53333 13.327H13.3267C13.1462 12.8387 13.229 12.2594 13.5828 11.8531C14.0651 11.2993 14.8666 11.2779 15.3733 11.8051L17.2028 13.709C17.4539 13.9704 17.5962 14.3326 17.5962 14.7117C17.5962 15.0907 17.4539 15.453 17.2028 15.7143L15.3733 17.6182C14.8666 18.1454 14.0651 18.124 13.5828 17.5702C13.229 17.1639 13.1462 16.5846 13.3267 16.0963H7.18141C6.62246 16.0963 6.0745 15.8659 5.66117 15.4358L5.58509 15.3526C5.21586 14.928 5 14.3618 5 13.7597L5 4.24028L5.00309 4.12061C5.02966 3.5635 5.24043 3.04377 5.58509 2.6474L5.66117 2.56424L5.74033 2.48581C6.14314 2.10613 6.65743 1.90371 7.18141 1.90369H9.0109Z" fill="#993955"/>
<path d="M16.8186 7.90369C17.3775 7.90371 17.9255 8.13412 18.3388 8.56424C18.7543 8.99657 19 9.59798 19 10.2403V19.7597C19 20.402 18.7543 21.0034 18.3388 21.4358C17.9255 21.8659 17.3775 22.0963 16.8186 22.0963H14.9891C14.2895 22.0963 13.7224 21.4764 13.7224 20.7117C13.7224 19.9469 14.2895 19.327 14.9891 19.327H18.3388V10.673H10.6727C10.8533 11.1613 10.7711 11.7405 10.4172 12.1469C9.93488 12.7007 9.13335 12.7221 8.62669 12.1949L6.7972 10.291L6.70814 10.1889C6.51257 9.93921 6.40384 9.6201 6.40384 9.28834C6.40384 8.90929 6.54605 8.54704 6.7972 8.28568L8.62669 6.3818C9.13335 5.85457 9.93488 5.87601 10.4172 6.4298C10.7711 6.83616 10.8533 7.41536 10.6727 7.90369L16.8186 7.90369Z" fill="#00B9AE"/>
</svg>
