<svg width="28" height="24" viewBox="0 0 28 24" fill="none" xmlns="http://www.w3.org/2000/svg">
<path fill-rule="evenodd" clip-rule="evenodd" d="M17.5 15C19.9853 15 22 12.9853 22 10.5C22 8.01472 19.9853 6 17.5 6C15.0147 6 13 8.01472 13 10.5C13 12.9853 15.0147 15 17.5 15ZM10.0754 16.5754C10.9407 15.7101 11.9414 15.0114 13.0278 14.5C14.1264 15.7275 15.723 16.5 17.5 16.5C19.277 16.5 20.8735 15.7275 21.9722 14.5C23.0586 15.0114 24.0593 15.7101 24.9246 16.5754C26.8937 18.5445 28 21.2152 28 24H17.5L7 24C7 21.2152 8.10625 18.5445 10.0754 16.5754Z" fill="#84A07C"/>
<path d="M13.0273 14.5C13.2671 14.7679 13.5325 15.0122 13.8164 15.2334C13.7424 15.4129 13.6322 15.5774 13.4873 15.7139L11.4648 17.6182C10.9049 18.1452 10.0194 18.1239 9.48633 17.5703C9.43218 17.514 9.38448 17.4538 9.3418 17.3916C9.57119 17.1084 9.81514 16.8353 10.0752 16.5752C10.8163 15.8341 11.6569 15.2151 12.5654 14.7314C12.7174 14.6505 12.8717 14.5733 13.0273 14.5ZM4.43262 1.90332C5.20573 1.90332 5.83287 2.52348 5.83301 3.28809C5.83301 4.0528 5.20582 4.67285 4.43262 4.67285H2.7998V13.3271H9.20312C9.00362 12.8389 9.0954 12.2598 9.48633 11.8535C9.91042 11.413 10.557 11.3103 11.0859 11.5518C11.1697 12.0667 11.3125 12.5616 11.5098 13.0283C10.4725 13.5946 9.51183 14.3104 8.66113 15.1611C8.36251 15.4598 8.08109 15.7724 7.81641 16.0967H2.41113C1.79334 16.0967 1.18732 15.8657 0.730469 15.4355L0.646484 15.3525C0.238478 14.9279 1.31398e-05 14.3618 0 13.7598V4.24023L0.00292969 4.12109C0.0322915 3.56405 0.265622 3.04382 0.646484 2.64746L0.730469 2.56445L0.818359 2.48535C1.26352 2.10583 1.83211 1.90334 2.41113 1.90332H4.43262ZM18.2002 6.05371C19.3265 6.22965 20.314 6.82395 21 7.67188V13.3281C20.9528 13.3864 20.9045 13.4441 20.8545 13.5C20.0305 14.4207 18.8328 15 17.5 15C16.6637 15 15.8809 14.7715 15.21 14.374C15.3624 13.7728 15.9113 13.3274 16.5664 13.3271H18.2002V6.05371ZM9.53516 0.381836C10.0951 -0.145175 10.9806 -0.123932 11.5137 0.429688C11.9047 0.835977 11.9954 1.41505 11.7959 1.90332H18.5889C19.2067 1.90334 19.8127 2.13434 20.2695 2.56445C20.7285 2.99676 21 3.59807 21 4.24023V5.02441C19.9895 4.37713 18.7891 4 17.5 4C16.4653 4 15.4875 4.24272 14.6191 4.67285H11.7959C11.9955 5.16112 11.9047 5.74013 11.5137 6.14648C10.9807 6.70013 10.0952 6.72212 9.53516 6.19531L7.5127 4.29102L7.41406 4.18848C7.19809 3.93884 7.07813 3.6197 7.07812 3.28809C7.07819 2.90923 7.23531 2.54741 7.5127 2.28613L9.53516 0.381836Z" fill="#00B9AE"/>
</svg>
