<svg width="14" height="11" viewBox="0 0 14 11" fill="none" xmlns="http://www.w3.org/2000/svg">
<path d="M13.5902 0.197855C13.4871 0.122771 13.3688 0.067211 13.2422 0.0343828C13.1155 0.0015545 12.9831 -0.0078924 12.8525 0.00658704C12.7219 0.0210665 12.5957 0.0591858 12.4812 0.118745C12.3667 0.178304 12.2661 0.258124 12.1853 0.353598L5.21062 8.59881L1.79302 4.76937C1.71286 4.67125 1.61207 4.58895 1.49665 4.52734C1.38122 4.46572 1.25351 4.42606 1.1211 4.4107C0.988679 4.39534 0.854256 4.4046 0.725805 4.43792C0.597355 4.47125 0.477495 4.52796 0.373341 4.6047C0.269187 4.68143 0.182861 4.77662 0.119487 4.88462C0.0561142 4.99262 0.0169853 5.11123 0.00442328 5.2334C-0.00813873 5.35557 0.00612243 5.47882 0.0463599 5.59583C0.0865974 5.71283 0.151991 5.82122 0.23866 5.91454L4.39359 10.6601C4.48736 10.7664 4.60585 10.852 4.74034 10.9107C4.87484 10.9693 5.02191 10.9996 5.17077 10.9991C5.32877 11.0056 5.48619 10.9774 5.62999 10.9168C5.7738 10.8563 5.89986 10.7652 5.99777 10.651L13.7995 1.48961C13.879 1.39252 13.9367 1.28185 13.9693 1.16404C14.0019 1.04624 14.0086 0.923655 13.9891 0.803431C13.9697 0.683208 13.9244 0.567749 13.8559 0.463781C13.7874 0.359814 13.6971 0.269417 13.5902 0.197855Z" fill="black"/>
</svg>
