<svg width="18" height="20" viewBox="0 0 18 20" fill="none" xmlns="http://www.w3.org/2000/svg">
<path fill-rule="evenodd" clip-rule="evenodd" d="M10.0631 2.47923C10.0631 2.47924 10.0631 2.47923 10.0631 2.47923L2.96613 9.8425C1.19829 11.6767 1.19827 14.6607 2.96614 16.4949C4.72012 18.3147 7.55291 18.3147 9.30686 16.4949L16.6998 8.82461C16.9662 8.5482 17.4063 8.54009 17.6827 8.80651C17.9591 9.07293 17.9672 9.51298 17.7008 9.78939L10.3078 17.4597C8.00712 19.8468 4.26589 19.8468 1.96515 17.4597C-0.321693 15.087 -0.321723 11.2504 1.96515 8.87772L9.06213 1.51444C10.6871 -0.171463 13.3326 -0.171475 14.9576 1.51443C16.5687 3.18595 16.5687 5.88581 14.9577 7.55734L7.87205 14.9088C6.92284 15.8936 5.37294 15.8937 4.42377 14.9088C3.48851 13.9384 3.48844 12.3753 4.42377 11.405C4.42378 11.405 4.42376 11.405 4.42377 11.405L10.8834 4.70303C11.1498 4.42662 11.5898 4.41852 11.8663 4.68493C12.1427 4.95135 12.1508 5.3914 11.8844 5.66782L5.42476 12.3698C5.00853 12.8016 5.00845 13.5121 5.42477 13.9441C5.82715 14.3616 6.4686 14.3616 6.87106 13.944C6.87106 13.944 6.87106 13.9441 6.87106 13.944L13.9567 6.59257C15.0487 5.45954 15.0487 3.61228 13.9567 2.47923M10.0631 2.47923C11.1413 1.3606 12.8784 1.36061 13.9567 2.47923Z" fill="black"/>
</svg>
