<svg width="28" height="24" viewBox="0 0 28 24" fill="none" xmlns="http://www.w3.org/2000/svg">
<path fill-rule="evenodd" clip-rule="evenodd" d="M9.08789 15.5149C8.32434 16.2628 7.67188 17.0995 7.14124 18H0C0 15.2153 1.1062 12.5446 3.07532 10.5754C4.3374 9.31335 5.8877 8.40576 7.57141 7.91675C6.60938 7.09143 6 5.86682 6 4.5C6 2.01477 8.01477 0 10.5 0C12.9852 0 15 2.01477 15 4.5C15 4.74768 14.98 4.99072 14.9415 5.22754C13.1117 6.24451 11.87 8.22437 11.87 10.5001C11.87 11.458 12.09 12.3635 12.4812 13.1667C11.2335 13.749 10.0839 14.5393 9.08789 15.5149ZM22 10.5001C22 12.9854 19.9852 15.0001 17.5 15.0001C15.0148 15.0001 13 12.9854 13 10.5001C13 8.01489 15.0148 6.00012 17.5 6.00012C19.9852 6.00012 22 8.01489 22 10.5001ZM13.0278 14.5001C11.9414 15.0116 10.9407 15.7102 10.0753 16.5754C8.1062 18.5447 7 21.2153 7 24.0001H17.5H28C28 21.2153 26.8937 18.5447 24.9246 16.5754C24.0593 15.7102 23.0586 15.0116 21.9722 14.5001C20.8735 15.7277 19.277 16.5001 17.5 16.5001C15.723 16.5001 14.1265 15.7277 13.0278 14.5001Z" fill="black"/>
</svg>
