<svg width="28" height="24" viewBox="0 0 28 24" fill="none" xmlns="http://www.w3.org/2000/svg">
<path d="M4 7C4 4.79086 5.79086 3 8 3L24 3C26.2091 3 28 4.79086 28 7L28 24L8 24C5.79086 24 4 22.2091 4 20L4 7Z" fill="#33658A"/>
<path d="M10.7498 14.017L15.5412 8.9639L15.5416 8.9644C16.004 8.47678 16.3708 7.89788 16.621 7.26078C16.8712 6.62367 17 5.94082 17 5.25122C17 4.56162 16.8712 3.87877 16.621 3.24167C16.3708 2.60456 16.004 2.02567 15.5416 1.53805C15.0793 1.05043 14.5304 0.663624 13.9263 0.399725C13.3222 0.135827 12.6747 5.65806e-08 12.0208 0C11.3669 0 10.7195 0.135827 10.1154 0.399726C9.51158 0.663483 8.96294 1.05001 8.50074 1.53726L8.4996 1.53606L8.49876 1.53694C8.03666 1.04994 7.4882 0.6636 6.88464 0.399939C6.28054 0.13604 5.63307 0.00021263 4.97919 0.000212517C4.32531 0.000212517 3.67784 0.136039 3.07374 0.399938C2.46963 0.663836 1.92073 1.05064 1.45837 1.53826C0.996011 2.02588 0.629247 2.60477 0.379019 3.24188C0.128791 3.87899 4.82846e-07 4.56183 0 5.25143C3.21897e-07 5.94103 0.12879 6.62388 0.379019 7.26099C0.629246 7.8981 0.996011 8.47699 1.45837 8.96461L6.24937 14.017C7.49214 15.3277 9.50706 15.3277 10.7498 14.017Z" fill="#E63462"/>
</svg>
