<svg width="28" height="24" viewBox="0 0 28 24" fill="none" xmlns="http://www.w3.org/2000/svg">
<path fill-rule="evenodd" clip-rule="evenodd" d="M17.5 15C19.9853 15 22 12.9853 22 10.5C22 8.01472 19.9853 6 17.5 6C15.0147 6 13 8.01472 13 10.5C13 12.9853 15.0147 15 17.5 15ZM10.0754 16.5754C10.9407 15.7101 11.9414 15.0114 13.0278 14.5C14.1264 15.7275 15.723 16.5 17.5 16.5C19.277 16.5 20.8735 15.7275 21.9722 14.5C23.0586 15.0114 24.0593 15.7101 24.9246 16.5754C26.8937 18.5445 28 21.2152 28 24H17.5L7 24C7 21.2152 8.10625 18.5445 10.0754 16.5754Z" fill="#84A07C"/>
<path fill-rule="evenodd" clip-rule="evenodd" d="M15 4.49829C12.651 5.47785 11 7.79617 11 10.5001C11 11.397 11.1816 12.2514 11.5102 13.0287C10.4728 13.595 9.51192 14.3105 8.66116 15.1613C7.81316 16.0093 7.09958 16.9666 6.53414 18.0001L0 18C0 15.2153 1.10625 12.5446 3.07538 10.5754C4.33742 9.31339 5.88765 8.4058 7.5714 7.91672C6.60943 7.09142 6 5.86688 6 4.5C6 2.01472 8.01472 0 10.5 0C12.9847 0 14.9991 2.01379 15 4.49829ZM12.5747 14.7269C12.5717 14.7285 12.5688 14.7301 12.5658 14.7316Z" fill="#84A07C"/>
</svg>
