<svg width="34" height="34" viewBox="0 0 34 34" fill="none" xmlns="http://www.w3.org/2000/svg">
<path d="M28.0636 27.7144C31.145 28.3018 33.8622 25.9433 33.4775 22.8301C32.7853 17.2269 31.5089 9.88242 30.2899 7.89607C28.4968 4.97435 25.9482 2.69714 22.9664 1.35242C19.9846 0.00769804 16.7035 -0.344143 13.5381 0.341391C10.3726 1.02692 7.46498 2.71904 5.18281 5.20376C2.90064 7.68849 1.34646 10.8542 0.716816 14.3006C0.0871677 17.747 -0.518248 20.8251 0.716853 24.0715C1.95195 27.318 6.83881 29.9574 9.52235 31.9097C11.6005 33.4215 13.1297 33.8454 15.2128 33.9597C16.0535 34.0058 16.5509 33.0553 16.0733 32.3619C15.8783 32.0788 15.5549 31.9173 15.213 31.8813C13.118 31.661 11.7778 30.1961 9.92214 28.8461C7.90948 27.3819 6.34081 25.3008 5.41448 22.866C4.48816 20.4312 4.24579 17.752 4.71802 15.1672C5.19026 12.5823 4.4511 11.3036 6.16272 9.44011C7.87435 7.57657 11.9599 5.21188 14.334 4.69773C16.7081 4.18358 18.8049 6.88753 21.0412 7.89607C23.2776 8.90461 26.4158 9.33902 27.7606 11.5303C28.7116 13.0798 25.6778 18.6803 23.8192 22.7598C22.824 24.9441 24.1868 26.9753 26.5447 27.4248L28.0636 27.7144Z" fill="white"/>
</svg>
