<svg width="250" height="250" viewBox="0 0 250 250" fill="none" xmlns="http://www.w3.org/2000/svg">
<path d="M0 100C0 52.8595 0 29.2893 14.6447 14.6447C29.2893 0 52.8595 0 100 0H150C197.14 0 220.711 0 235.355 14.6447C250 29.2893 250 52.8595 250 100V150C250 197.14 250 220.711 235.355 235.355C220.711 250 197.14 250 150 250H100C52.8595 250 29.2893 250 14.6447 235.355C0 220.711 0 197.14 0 150V100Z" fill="#31A05E"/>
<path d="M81.283 147.006L93.5781 166.292H124.292L111.453 147.006L81.283 147.006Z" fill="white"/>
<path fill-rule="evenodd" clip-rule="evenodd" d="M67.8683 138.528H67.8617V166.292H41V83H89.9341C96.1116 83 101.56 84.1661 106.28 86.4983C111 88.7934 114.661 92.0511 117.264 96.2712C119.867 100.491 121.169 105.359 121.169 110.875C121.169 116.761 119.659 121.888 116.64 126.256C116.133 126.998 115.592 127.708 115.017 128.386C106.081 137.984 93.904 137.799 76.953 137.542C74.0658 137.498 71.0401 137.452 67.8683 137.452V138.528ZM67.8617 118.649V103.101H85.7695C88.4417 103.101 90.4893 103.786 91.9122 105.156C93.3699 106.488 94.0987 108.395 94.0987 110.875C94.0987 113.355 93.3699 115.28 91.9122 116.65C90.4893 117.983 88.4417 118.649 85.7695 118.649H67.8617Z" fill="white"/>
<path d="M180.728 166.352L177.623 144.613L180.728 135.618L177.623 126.729L180.728 104.776H209L204.716 135.511L209 166.352H180.728ZM186.404 135.618C185.69 142.186 183.905 147.933 181.05 152.859C178.265 157.714 174.588 161.498 170.019 164.211C165.522 166.924 160.346 168.28 154.491 168.28C148.494 168.28 143.211 166.924 138.642 164.211C134.144 161.498 130.61 157.678 128.04 152.752C125.541 147.826 124.292 142.115 124.292 135.618C124.292 129.05 125.541 123.302 128.04 118.376C130.61 113.45 134.144 109.631 138.642 106.918C143.211 104.205 148.494 102.848 154.491 102.848C160.346 102.848 165.522 104.205 170.019 106.918C174.588 109.559 178.301 113.343 181.157 118.269C184.012 123.124 185.761 128.907 186.404 135.618ZM151.707 135.618C151.707 137.974 152.171 140.08 153.099 141.936C154.099 143.721 155.455 145.149 157.169 146.22C158.953 147.291 160.988 147.826 163.273 147.826C165.629 147.826 167.913 147.291 170.126 146.22C172.34 145.149 174.267 143.721 175.909 141.936C177.623 140.08 178.801 137.974 179.443 135.618C178.801 133.262 177.623 131.156 175.909 129.299C174.267 127.443 172.34 125.98 170.126 124.909C167.913 123.838 165.629 123.302 163.273 123.302C160.988 123.302 158.953 123.838 157.169 124.909C155.455 125.98 154.099 127.443 153.099 129.299C152.171 131.156 151.707 133.262 151.707 135.618Z" fill="white"/>
</svg>
