<svg width="25" height="25" viewBox="0 0 25 25" fill="none" xmlns="http://www.w3.org/2000/svg">
<g opacity="0.33">
<path d="M1.89806 0.129745L24.246 10.8179C24.9065 11.1338 25.1859 11.9253 24.8699 12.5858C24.7393 12.859 24.5191 13.0792 24.246 13.2098L1.89806 23.898C1.23753 24.2139 0.44598 23.9345 0.130076 23.274C-0.00719954 22.9869 -0.0366695 22.6601 0.0470463 22.3532L2.28228 14.157C2.33828 13.9517 2.51162 13.7998 2.72251 13.7711L13.5517 12.3001C13.645 12.2868 13.7224 12.2255 13.7581 12.1417L13.7767 12.0751C13.7944 11.9509 13.723 11.8345 13.6109 11.7907L13.5517 11.7752L2.73519 10.3042C2.52432 10.2755 2.35102 10.1236 2.29503 9.91827L0.0470463 1.67455C-0.145603 0.968173 0.270859 0.239364 0.977241 0.0467148C1.2842 -0.0370009 1.61103 -0.00753078 1.89806 0.129745Z" fill="#020202"/>
</g>
</svg>
