<svg width="29" height="24" viewBox="0 0 29 24" fill="none" xmlns="http://www.w3.org/2000/svg">
<path opacity="0.1" d="M26.3446 0.211879C26.3446 0.211879 29.0089 -0.826978 28.7868 1.69596C28.7128 2.73483 28.0468 6.37083 27.5287 10.3037L25.7526 21.9537C25.7526 21.9537 25.6046 23.6604 24.2725 23.9573C22.9404 24.254 20.9422 22.9184 20.5722 22.6216C20.2761 22.399 15.0218 19.0598 13.1716 17.4273C12.6535 16.982 12.0615 16.0916 13.2456 15.0527L21.0162 7.63234C21.9043 6.74187 22.7924 4.66416 19.0921 7.1871L8.73126 14.2365C8.73126 14.2365 7.54717 14.9785 5.32704 14.3107L0.516631 12.8266C0.516631 12.8266 -1.25951 11.7136 1.77473 10.6004C9.17533 7.11284 18.278 3.55104 26.3446 0.211879Z" fill="#020202"/>
</svg>
