<svg width="24" height="24" viewBox="0 0 24 24" fill="none" xmlns="http://www.w3.org/2000/svg">
<path d="M22.8782 8.6647C22.9812 8.84519 22.8788 9.15079 22.659 9.4324C22.6558 9.27528 22.6257 9.15463 22.5348 9.11431C22.3169 9.01767 22.2734 9.64553 21.7799 9.67497C21.0845 9.71625 20.6119 8.62886 20.2845 8.7687C20.1133 8.84167 20.2355 9.14183 20.0672 9.44424C19.9159 9.13863 19.9283 8.83655 19.6999 8.77095C19.4496 8.69926 19.0422 9.11047 18.7658 8.86855C18.5949 8.7191 18.4528 8.53926 18.2896 8.55174C17.4384 8.6151 18.1097 9.96522 17.7324 9.55561C17.2918 9.07719 17.5001 8.82439 17.3068 8.73958C17.0755 8.63782 16.6735 9.266 16.5769 9.13991C16.3647 8.86247 17.4707 7.9498 17.1897 7.39811C17.0137 7.08642 16.3215 7.45027 16.2582 7.30083C16.1913 7.14306 17.6681 6.63105 17.7081 5.79871C17.7088 5.78335 17.7091 5.76799 17.7088 5.75295C17.7728 5.79551 17.8438 5.83423 17.9251 5.86399C18.4621 6.06208 19.2109 5.80127 19.6042 5.29118C19.793 5.04669 19.9079 4.73436 19.9482 4.44731C20.1485 4.77852 20.3171 5.38334 20.5594 5.44126C20.9428 5.5331 20.7472 4.36699 20.9546 4.61564C21.4193 5.17309 21.1101 5.99903 21.5748 5.99167C21.9018 5.98655 21.8721 5.19837 22.0695 5.46206C22.7793 6.41057 21.8689 7.11682 22.2817 7.35587C22.4961 7.48003 22.9303 7.03394 22.9265 7.31427C22.923 7.58659 22.0647 8.21029 22.1146 8.46278C22.1492 8.63718 22.7572 8.45094 22.8794 8.6647H22.8782Z" fill="white"/>
<path d="M19.9475 4.44702C19.8659 4.31229 19.7795 4.22269 19.6807 4.23325C19.4435 4.25853 19.72 4.82398 19.3072 5.09631C18.7257 5.47968 17.7728 4.77438 17.559 5.05919C17.4473 5.20799 17.703 5.40672 17.7081 5.75265C17.4246 5.56352 17.2841 5.296 17.0537 5.3536C16.8012 5.41664 16.654 5.97665 16.2937 5.90529C16.071 5.86113 15.8582 5.77665 15.7228 5.86881C15.0172 6.34946 16.2739 7.18276 15.7423 7.017C15.1212 6.82308 15.1756 6.50019 14.9657 6.52323C14.7141 6.55107 14.6805 7.29573 14.5337 7.23461C14.2114 7.10084 14.7125 5.75713 14.1935 5.41952C13.885 5.23775 13.4677 5.89889 13.3381 5.80129C13.2011 5.69793 14.2242 4.51646 13.8428 3.77532C13.8357 3.76156 13.8284 3.74812 13.8207 3.73564C13.8972 3.74076 13.9781 3.73852 14.0632 3.7238C14.6274 3.62715 15.1452 3.0265 15.2309 2.38808C15.2722 2.08183 15.2156 1.75383 15.1068 1.48502C15.446 1.6719 15.8946 2.11128 16.1334 2.04055C16.5113 1.92855 15.759 1.01621 16.0626 1.12789C16.7439 1.37846 16.8889 2.24824 17.2876 2.00983C17.5683 1.84183 17.1484 1.17397 17.4512 1.30389C18.5398 1.77047 18.1049 2.83737 18.5817 2.83801C18.8297 2.83801 18.9824 2.23512 19.1197 2.4796C19.2528 2.71705 18.8211 3.68636 18.9907 3.87996C19.1078 4.01372 19.5414 3.54843 19.7539 3.6726C19.9335 3.77724 19.9975 4.09339 19.9482 4.44731L19.9475 4.44702Z" fill="white"/>
<path d="M14.8764 2.3676C14.5644 2.99066 13.3868 2.85626 13.3436 3.20954C13.3212 3.39419 13.6421 3.43867 13.8197 3.73564C13.4792 3.71388 13.2242 3.55227 13.0533 3.7174C12.8661 3.8982 13.0187 4.45662 12.6709 4.57534C12.4562 4.64862 12.2293 4.6819 12.1582 4.82943C11.7877 5.59841 13.2927 5.69185 12.7493 5.81409C12.1147 5.95682 12.0002 5.64961 11.8296 5.77473C11.6258 5.92449 11.9691 6.58627 11.811 6.60707C11.4651 6.65219 11.2273 5.23808 10.6091 5.20544C10.251 5.20224 10.22 5.98338 10.059 5.96354C9.88875 5.94273 10.1838 4.40766 9.48298 3.95676C9.46986 3.94844 9.45674 3.94076 9.44394 3.9334C9.51274 3.89948 9.58155 3.85692 9.64811 3.80188C10.0884 3.43611 10.2366 2.65721 9.99179 2.06136C9.87435 1.77559 9.66123 1.5199 9.43274 1.34134C9.81995 1.33366 10.4283 1.48982 10.5995 1.30902C10.8709 1.02325 9.76299 0.609159 10.082 0.554117C10.7973 0.430594 11.3579 1.11125 11.5838 0.705161C11.7429 0.419394 11.0453 0.0510642 11.3726 0.0120232C12.549 -0.12846 12.7055 1.01333 13.1189 0.775243C13.3336 0.6514 13.1643 0.0526642 13.4053 0.196028C13.6392 0.335231 13.7503 1.39062 13.9938 1.4735C14.1621 1.53078 14.3049 0.910926 14.5509 0.912206C14.7589 0.913166 14.9724 1.15477 15.1062 1.48598C14.9682 1.41014 14.8489 1.37622 14.7685 1.43446C14.5756 1.57462 15.0978 1.92631 14.8764 2.36856V2.3676Z" fill="white"/>
<path d="M7.23493 9.46667C7.10117 9.78892 5.75746 9.28778 5.42017 9.80684C5.23809 10.1153 5.89922 10.5326 5.80162 10.6622C5.69826 10.7992 4.51679 9.77612 3.77565 10.1576C3.76189 10.1646 3.74845 10.172 3.73565 10.1796C3.74077 10.1032 3.73853 10.0222 3.72381 9.93708C3.62717 9.37291 3.02652 8.85513 2.3881 8.76937C2.08186 8.72809 1.75385 8.78473 1.48504 8.89353C1.67193 8.55432 2.1113 8.10567 2.04057 7.86695C1.92857 7.48902 1.01623 8.24136 1.12791 7.93767C1.37848 7.25637 2.24826 7.11141 2.00985 6.71268C1.84185 6.43203 1.17399 6.85188 1.30392 6.54915C1.77049 5.46049 2.83739 5.89538 2.83803 5.41857C2.83803 5.17056 2.23514 5.01792 2.47962 4.88063C2.71707 4.74751 3.68637 5.1792 3.87998 5.0096C4.01374 4.89247 3.54845 4.45886 3.67261 4.24638C3.77725 4.06685 4.09342 4.00285 4.44735 4.05213C4.31263 4.13373 4.22302 4.22014 4.23358 4.31902C4.25887 4.55614 4.82432 4.27966 5.09664 4.69247C5.48001 5.27392 4.77472 6.22691 5.05952 6.44067C5.20833 6.55235 5.40737 6.29667 5.75298 6.29155C5.56418 6.57539 5.29633 6.71556 5.35393 6.94596C5.41697 7.19845 5.97699 7.34565 5.90562 7.70598C5.86146 7.92871 5.77698 8.14151 5.86914 8.27688C6.34979 8.9825 7.18309 7.72582 7.01733 8.25736C6.82341 8.87849 6.50052 8.82409 6.52356 9.03402C6.5514 9.28554 7.29606 9.31914 7.23493 9.46603V9.46667Z" fill="white"/>
<path d="M5.2051 13.3909C5.2019 13.749 5.98304 13.7801 5.9632 13.941C5.9424 14.1113 4.40733 13.8162 3.95644 14.517C3.94812 14.5302 3.94043 14.543 3.93307 14.5561C3.89883 14.4873 3.85659 14.4185 3.80155 14.3522C3.43578 13.9119 2.65689 13.7637 2.06103 14.0085C1.77526 14.126 1.51958 14.3388 1.34133 14.5676C1.33333 14.1804 1.4895 13.5724 1.30901 13.4008C1.02325 13.1295 0.609157 14.2373 0.554116 13.9183C0.430593 13.2031 1.11125 12.6424 0.705159 12.4165C0.419392 12.2575 0.0510641 12.9551 0.0120232 12.6277C-0.12846 11.4514 1.01333 11.2949 0.775241 10.8814C0.651398 10.6667 0.0526641 10.836 0.196027 10.595C0.335231 10.3611 1.39062 10.25 1.4735 10.0065C1.53078 9.8382 0.910924 9.69547 0.912204 9.44938C0.913164 9.24138 1.15477 9.02793 1.48598 8.89385C1.41014 9.03177 1.37621 9.15114 1.43446 9.23146C1.57462 9.42442 1.92663 8.90217 2.36856 9.12362C2.99161 9.43563 2.85721 10.6133 3.2105 10.6565C3.39514 10.6789 3.43962 10.3579 3.73659 10.1803C3.71483 10.5205 3.55323 10.7758 3.71835 10.9467C3.89915 11.1339 4.45757 10.9813 4.57629 11.3291C4.64957 11.5438 4.68285 11.7707 4.83038 11.8418C5.59935 12.2123 5.6928 10.7073 5.81504 11.2507C5.95776 11.8853 5.65055 11.9999 5.77568 12.1704C5.92544 12.3743 6.58722 12.0309 6.60802 12.189C6.65314 12.5349 5.23903 12.7727 5.20638 13.3909H5.2051Z" fill="white"/>
<path d="M6.29279 18.2013C6.29215 18.2166 6.29183 18.232 6.29215 18.2471C6.22815 18.2045 6.15711 18.1658 6.07583 18.136C5.53886 17.9376 4.79004 18.1987 4.39675 18.7088C4.20794 18.9533 4.09306 19.2656 4.05274 19.5527C3.85242 19.2215 3.68345 18.6163 3.44153 18.5584C3.05848 18.4666 3.25368 19.6327 3.04632 19.384C2.58167 18.8266 2.89079 18.0006 2.42614 18.008C2.0991 18.0131 2.12886 18.8013 1.93141 18.5376C1.22164 17.5891 2.13206 16.8829 1.71925 16.6438C1.50484 16.5196 1.07059 16.9657 1.07443 16.6854C1.07795 16.4131 1.93621 15.7894 1.88629 15.5369C1.85173 15.3625 1.24372 15.5487 1.12147 15.335C1.01843 15.1545 1.12083 14.8489 1.34068 14.567C1.34388 14.7241 1.37396 14.845 1.46484 14.8854C1.68245 14.982 1.72629 14.3542 2.21974 14.3247C2.91511 14.2834 3.38777 15.3708 3.71513 15.231C3.88634 15.158 3.76409 14.8578 3.93242 14.5554C4.08378 14.861 4.0713 15.1631 4.29979 15.2284C4.55003 15.3001 4.9574 14.8889 5.23389 15.1308C5.40477 15.2803 5.54686 15.4601 5.71006 15.4476C6.56128 15.3843 5.8899 14.0341 6.26719 14.4438C6.70784 14.9222 6.49952 15.175 6.6928 15.2598C6.92417 15.3615 7.3261 14.7334 7.42274 14.8594C7.63491 15.1369 6.52896 16.0496 6.80993 16.6012C6.98593 16.9129 7.67811 16.5491 7.74147 16.6985C7.80867 16.8563 6.33151 17.3683 6.29151 18.2006L6.29279 18.2013Z" fill="white"/>
<path d="M10.1582 20.2244C10.1653 20.2381 10.1726 20.2516 10.1803 20.2644C10.1038 20.2593 10.0229 20.2615 9.93775 20.2762C9.37357 20.3729 8.8558 20.9735 8.77004 21.6119C8.72876 21.9182 8.7854 22.2462 8.8942 22.515C8.555 22.3281 8.10635 21.8888 7.86762 21.9595C7.48969 22.0715 8.24203 22.9838 7.93834 22.8721C7.25705 22.6216 7.11208 21.7518 6.71335 21.9902C6.43271 22.1582 6.85256 22.8261 6.54983 22.6961C5.46116 22.2296 5.89605 21.1627 5.41924 21.162C5.17124 21.162 5.01859 21.7649 4.88131 21.5204C4.74819 21.283 5.17988 20.3137 5.01027 20.1201C4.89315 19.9863 4.45954 20.4516 4.24706 20.3274C4.06753 20.2228 4.00353 19.9069 4.05281 19.553C4.13441 19.6877 4.22081 19.777 4.31938 19.7665C4.5565 19.7412 4.28002 19.1757 4.69283 18.9034C5.2746 18.52 6.22726 19.2253 6.44103 18.9405C6.55271 18.7917 6.29702 18.593 6.2919 18.2471C6.57575 18.4359 6.71591 18.7037 6.94632 18.6461C7.1988 18.5831 7.34601 18.0231 7.70634 18.0944C7.92906 18.1386 8.14187 18.2231 8.27723 18.1309C8.98285 17.6502 7.72618 16.8169 8.25771 16.9827C8.87884 17.1766 8.82444 17.4995 9.03437 17.4765C9.28589 17.4486 9.31949 16.704 9.46638 16.7651C9.78863 16.8989 9.28749 18.2426 9.80655 18.5799C10.115 18.762 10.5323 18.1008 10.6619 18.1984C10.7989 18.3018 9.77582 19.4833 10.1573 20.2244H10.1582Z" fill="white"/>
<path d="M13.4008 22.691C13.1294 22.9768 14.2373 23.3908 13.9183 23.4459C13.203 23.5694 12.6424 22.8888 12.4165 23.2948C12.2574 23.5806 12.955 23.9489 12.6277 23.988C11.4516 24.1285 11.2948 22.9867 10.8814 23.2248C10.6667 23.3486 10.8359 23.9473 10.595 23.804C10.3611 23.6648 10.25 22.6094 10.0065 22.5265C9.83816 22.4692 9.69544 23.0891 9.44935 23.0878C9.24135 23.0868 9.0279 22.8452 8.89382 22.514C9.03174 22.5899 9.15111 22.6238 9.23143 22.5655C9.42439 22.4254 8.90214 22.0734 9.12359 21.6314C9.43559 21.0084 10.6132 21.1428 10.6564 20.7895C10.6788 20.6049 10.3579 20.5604 10.1803 20.2634C10.5204 20.2852 10.7758 20.4468 10.9467 20.2816C11.1339 20.1008 10.9812 19.5424 11.3291 19.4237C11.5441 19.3504 11.7707 19.3171 11.8417 19.1696C12.2123 18.4006 10.7073 18.3072 11.2507 18.185C11.8853 18.0422 11.9998 18.3494 12.1704 18.2243C12.3742 18.0745 12.0309 17.4128 12.1889 17.392C12.5349 17.3468 12.7726 18.761 13.3909 18.7936C13.749 18.7968 13.78 18.0157 13.941 18.0355C14.1112 18.0563 13.8162 19.5914 14.517 20.0423C14.5301 20.0506 14.5432 20.0583 14.556 20.0656C14.4872 20.0996 14.4184 20.1421 14.3519 20.1972C13.9115 20.5629 13.7634 21.3418 14.0082 21.9377C14.1256 22.2235 14.3384 22.4791 14.5672 22.6577C14.18 22.6654 13.5717 22.5092 13.4005 22.69L13.4008 22.691Z" fill="white"/>
<path d="M19.3843 20.9534C18.8269 21.418 18.001 21.1089 18.0083 21.5735C18.0134 21.9006 18.8016 21.8708 18.5379 22.0683C17.5894 22.7781 16.8832 21.8676 16.6441 22.2804C16.52 22.4948 16.966 22.9291 16.6857 22.9253C16.4134 22.9217 15.7897 22.0635 15.5372 22.1134C15.3628 22.148 15.5491 22.756 15.3353 22.8782C15.1548 22.9813 14.8492 22.8789 14.5676 22.659C14.7247 22.6558 14.8454 22.6257 14.8857 22.5348C14.9823 22.3169 14.3545 22.2734 14.325 21.7799C14.2837 21.0846 15.3711 20.6119 15.2313 20.2846C15.1583 20.1133 14.8582 20.2356 14.5558 20.0673C14.8614 19.9159 15.1634 19.9284 15.2287 19.6999C15.3004 19.4496 14.8892 19.0423 15.1311 18.7658C15.2806 18.5949 15.4604 18.4528 15.4479 18.2896C15.3846 17.4384 14.0345 18.1098 14.4441 17.7325C14.9225 17.2918 15.1753 17.5002 15.2601 17.3069C15.3615 17.0755 14.7334 16.6736 14.8598 16.5769C15.1369 16.3648 16.0499 17.4707 16.6016 17.1898C16.9132 17.0137 16.5494 16.3216 16.6988 16.2582C16.8566 16.191 17.3686 17.6682 18.201 17.7082C18.2163 17.7088 18.2317 17.7091 18.2467 17.7088C18.2042 17.7728 18.1654 17.8438 18.1357 17.9251C17.9376 18.4621 18.1984 19.2109 18.7085 19.6042C18.9533 19.793 19.2653 19.9079 19.5527 19.9482C19.2215 20.1485 18.6163 20.3172 18.5584 20.5594C18.4666 20.9425 19.6327 20.7473 19.384 20.9546L19.3843 20.9534Z" fill="white"/>
<path d="M21.9902 17.287C22.1582 17.5677 22.826 17.1478 22.6961 17.4505C22.2295 18.5392 21.1623 18.1043 21.162 18.5811C21.162 18.8291 21.7649 18.9818 21.5204 19.1191C21.283 19.2522 20.3136 18.8205 20.12 18.9901C19.9863 19.1072 20.4516 19.5408 20.3274 19.7533C20.2228 19.9329 19.9069 19.9969 19.553 19.9476C19.6874 19.866 19.777 19.7796 19.7664 19.681C19.7412 19.4439 19.1757 19.7204 18.9034 19.3076C18.52 18.7258 19.2253 17.7731 18.9405 17.5594C18.7917 17.4477 18.593 17.7034 18.247 17.7085C18.4358 17.4246 18.7037 17.2845 18.6461 17.0541C18.583 16.8016 18.023 16.6544 18.0944 16.294C18.1386 16.0713 18.223 15.8585 18.1309 15.7231C17.6502 15.0175 16.8169 16.2742 16.9827 15.7427C17.1766 15.1215 17.4995 15.1759 17.4765 14.966C17.4489 14.7145 16.704 14.6809 16.7651 14.534C16.8988 14.2117 18.2426 14.7129 18.5802 14.1938C18.7619 13.8853 18.1008 13.468 18.1984 13.3384C18.3018 13.2015 19.4832 14.2245 20.2244 13.8431C20.2381 13.8361 20.2516 13.8287 20.264 13.821C20.2589 13.8975 20.2612 13.9785 20.2759 14.0636C20.3725 14.6278 20.9732 15.1455 21.6116 15.2313C21.9178 15.2726 22.2459 15.2159 22.5147 15.1071C22.3278 15.4463 21.8884 15.895 21.9591 16.1337C22.0711 16.5116 22.9835 15.7593 22.8718 16.063C22.6212 16.7443 21.7514 16.8893 21.9898 17.288L21.9902 17.287Z" fill="white"/>
<path d="M23.8046 13.405C23.6654 13.6389 22.61 13.75 22.5271 13.9935C22.4699 14.1618 23.0897 14.3045 23.0884 14.5506C23.0875 14.7586 22.8459 14.9721 22.5147 15.1062C22.5905 14.9682 22.6244 14.8489 22.5662 14.7686C22.426 14.5756 22.0743 15.0978 21.6321 14.8764C21.009 14.5644 21.1434 13.3868 20.7901 13.3436C20.6055 13.3212 20.561 13.6421 20.264 13.8197C20.2858 13.4792 20.4474 13.2242 20.2823 13.0533C20.1015 12.8661 19.5431 13.0188 19.4243 12.6709C19.3511 12.4562 19.3178 12.2293 19.1706 12.1583C18.4013 11.7877 18.3078 13.2927 18.1859 12.7493C18.0432 12.1147 18.3504 12.0002 18.2253 11.8296C18.0755 11.6258 17.4137 11.9691 17.3929 11.811C17.3478 11.4651 18.7619 11.2273 18.7946 10.6091C18.7978 10.251 18.0166 10.22 18.0365 10.059C18.0573 9.88875 19.5924 10.1838 20.0432 9.48298C20.0516 9.46986 20.0592 9.45706 20.0666 9.44394C20.1008 9.51274 20.1431 9.58154 20.1981 9.64779C20.5639 10.0881 21.3428 10.2363 21.9386 9.99147C22.2244 9.87403 22.4801 9.66123 22.6587 9.43242C22.6663 9.81963 22.5102 10.428 22.691 10.5992C22.9768 10.8705 23.3908 9.76267 23.4459 10.0817C23.5694 10.7969 22.8888 11.3576 23.2948 11.5835C23.5806 11.7426 23.9489 11.0449 23.988 11.3723C24.1285 12.5483 22.9867 12.7051 23.2248 13.1186C23.3486 13.3333 23.9473 13.164 23.804 13.405H23.8046Z" fill="white"/>
<path d="M9.5559 6.26787C9.07748 6.70853 8.82468 6.5002 8.73988 6.69348C8.63811 6.92485 9.26629 7.32678 9.14021 7.42342C8.86276 7.63559 7.9501 6.52964 7.39841 6.81061C7.08672 6.98661 7.45057 7.67879 7.30112 7.74215C7.14336 7.80935 6.63135 6.3322 5.79901 6.29219C5.78365 6.29155 5.76829 6.29123 5.75325 6.29155C5.79581 6.22755 5.83453 6.15651 5.86429 6.07523C6.06269 5.53825 5.80157 4.78944 5.29148 4.39615C5.04699 4.20734 4.73466 4.09246 4.44762 4.05214C4.77882 3.85181 5.38364 3.68317 5.44156 3.44092C5.5334 3.05787 4.36729 3.25308 4.61594 3.04571C5.17339 2.58106 5.99933 2.89019 5.99197 2.42554C5.98685 2.09849 5.19867 2.12825 5.46236 1.9308C6.41086 1.22102 7.11712 2.13145 7.35616 1.71864C7.48033 1.50423 7.03424 1.06998 7.31456 1.07382C7.58689 1.07734 8.21058 1.9356 8.46307 1.88568C8.63747 1.85112 8.45123 1.2431 8.665 1.12086C8.84548 1.01782 9.15109 1.12022 9.43269 1.34007C9.27557 1.34327 9.15493 1.37335 9.11461 1.46423C9.01796 1.68216 9.64582 1.72568 9.67526 2.21913C9.71654 2.91451 8.62915 3.38716 8.769 3.71453C8.84196 3.88573 9.14213 3.76349 9.44453 3.93181C9.13893 4.08318 8.83716 4.0707 8.77156 4.29918C8.69988 4.54943 9.11109 4.9568 8.86916 5.23329C8.71972 5.40417 8.53987 5.54626 8.55235 5.70946C8.61603 6.56068 9.96583 5.8893 9.55622 6.26659L9.5559 6.26787Z" fill="white"/>
</svg>
