<svg width="28" height="24" viewBox="0 0 28 24" fill="none" xmlns="http://www.w3.org/2000/svg">
<path fill-rule="evenodd" clip-rule="evenodd" d="M4.56528 18C4.54895 17.8355 4.54059 17.6687 4.54059 17.5V10.5C4.54059 7.18629 7.22688 4.5 10.5406 4.5H21.4865C21.6336 4.5 21.7792 4.50635 21.9231 4.5188C21.681 1.98313 19.545 0 16.9459 0H5.00001C2.23858 0 0 2.23858 0 5V18H4.56528Z" fill="black"/>
<path d="M6.05408 11C6.05408 8.23858 8.29265 6 11.0541 6H23C25.7614 6 28 8.23858 28 11V24H11.0541C8.29266 24 6.05408 21.7614 6.05408 19V11Z" fill="black"/>
</svg>
